<svg xmlns="http://www.w3.org/2000/svg" xmlns:xlink="http://www.w3.org/1999/xlink" width="600" height="400" viewBox="0 0 2400 1600">
<defs>
  <clipPath id="clip900">
    <rect x="0" y="0" width="2400" height="1600"></rect>
  </clipPath>
</defs>
<path clip-path="url(#clip900)" d="
M0 1600 L2400 1600 L2400 0 L0 0  Z
  " fill="#ffffff" fill-rule="evenodd" fill-opacity="1"></path>
<defs>
  <clipPath id="clip901">
    <rect x="480" y="0" width="1681" height="1600"></rect>
  </clipPath>
</defs>
<path clip-path="url(#clip900)" d="
M112.177 1486.45 L2352.76 1486.45 L2352.76 47.2441 L112.177 47.2441  Z
  " fill="#ffffff" fill-rule="evenodd" fill-opacity="1"></path>
<defs>
  <clipPath id="clip902">
    <rect x="112" y="47" width="2242" height="1440"></rect>
  </clipPath>
</defs>
<polyline clip-path="url(#clip902)" style="stroke:#000000; stroke-linecap:butt; stroke-linejoin:round; stroke-width:2; stroke-opacity:0.1; fill:none" points="
  112.177,1486.45 112.177,47.2441 
  "></polyline>
<polyline clip-path="url(#clip902)" style="stroke:#000000; stroke-linecap:butt; stroke-linejoin:round; stroke-width:2; stroke-opacity:0.1; fill:none" points="
  560.293,1486.45 560.293,47.2441 
  "></polyline>
<polyline clip-path="url(#clip902)" style="stroke:#000000; stroke-linecap:butt; stroke-linejoin:round; stroke-width:2; stroke-opacity:0.1; fill:none" points="
  1008.41,1486.45 1008.41,47.2441 
  "></polyline>
<polyline clip-path="url(#clip902)" style="stroke:#000000; stroke-linecap:butt; stroke-linejoin:round; stroke-width:2; stroke-opacity:0.1; fill:none" points="
  1456.52,1486.45 1456.52,47.2441 
  "></polyline>
<polyline clip-path="url(#clip902)" style="stroke:#000000; stroke-linecap:butt; stroke-linejoin:round; stroke-width:2; stroke-opacity:0.1; fill:none" points="
  1904.64,1486.45 1904.64,47.2441 
  "></polyline>
<polyline clip-path="url(#clip902)" style="stroke:#000000; stroke-linecap:butt; stroke-linejoin:round; stroke-width:2; stroke-opacity:0.1; fill:none" points="
  2352.76,1486.45 2352.76,47.2441 
  "></polyline>
<polyline clip-path="url(#clip900)" style="stroke:#000000; stroke-linecap:butt; stroke-linejoin:round; stroke-width:4; stroke-opacity:1; fill:none" points="
  112.177,1486.45 2352.76,1486.45 
  "></polyline>
<polyline clip-path="url(#clip900)" style="stroke:#000000; stroke-linecap:butt; stroke-linejoin:round; stroke-width:4; stroke-opacity:1; fill:none" points="
  112.177,1486.45 112.177,1467.55 
  "></polyline>
<polyline clip-path="url(#clip900)" style="stroke:#000000; stroke-linecap:butt; stroke-linejoin:round; stroke-width:4; stroke-opacity:1; fill:none" points="
  560.293,1486.45 560.293,1467.55 
  "></polyline>
<polyline clip-path="url(#clip900)" style="stroke:#000000; stroke-linecap:butt; stroke-linejoin:round; stroke-width:4; stroke-opacity:1; fill:none" points="
  1008.41,1486.45 1008.41,1467.55 
  "></polyline>
<polyline clip-path="url(#clip900)" style="stroke:#000000; stroke-linecap:butt; stroke-linejoin:round; stroke-width:4; stroke-opacity:1; fill:none" points="
  1456.52,1486.45 1456.52,1467.55 
  "></polyline>
<polyline clip-path="url(#clip900)" style="stroke:#000000; stroke-linecap:butt; stroke-linejoin:round; stroke-width:4; stroke-opacity:1; fill:none" points="
  1904.64,1486.45 1904.64,1467.55 
  "></polyline>
<polyline clip-path="url(#clip900)" style="stroke:#000000; stroke-linecap:butt; stroke-linejoin:round; stroke-width:4; stroke-opacity:1; fill:none" points="
  2352.76,1486.45 2352.76,1467.55 
  "></polyline>
<path clip-path="url(#clip900)" d="M102.559 1544.91 L110.198 1544.91 L110.198 1518.55 L101.888 1520.21 L101.888 1515.95 L110.152 1514.29 L114.828 1514.29 L114.828 1544.91 L122.466 1544.91 L122.466 1548.85 L102.559 1548.85 L102.559 1544.91 Z" fill="#000000" fill-rule="evenodd" fill-opacity="1"></path><path clip-path="url(#clip900)" d="M554.946 1544.91 L571.265 1544.91 L571.265 1548.85 L549.321 1548.85 L549.321 1544.91 Q551.983 1542.16 556.566 1537.53 Q561.173 1532.88 562.353 1531.53 Q564.598 1529.01 565.478 1527.27 Q566.381 1525.51 566.381 1523.82 Q566.381 1521.07 564.436 1519.33 Q562.515 1517.6 559.413 1517.6 Q557.214 1517.6 554.761 1518.36 Q552.33 1519.13 549.552 1520.68 L549.552 1515.95 Q552.376 1514.82 554.83 1514.24 Q557.284 1513.66 559.321 1513.66 Q564.691 1513.66 567.885 1516.35 Q571.08 1519.03 571.08 1523.52 Q571.08 1525.65 570.27 1527.57 Q569.483 1529.47 567.376 1532.07 Q566.798 1532.74 563.696 1535.95 Q560.594 1539.15 554.946 1544.91 Z" fill="#000000" fill-rule="evenodd" fill-opacity="1"></path><path clip-path="url(#clip900)" d="M1012.66 1530.21 Q1016.01 1530.93 1017.89 1533.2 Q1019.79 1535.47 1019.79 1538.8 Q1019.79 1543.92 1016.27 1546.72 Q1012.75 1549.52 1006.27 1549.52 Q1004.09 1549.52 1001.78 1549.08 Q999.485 1548.66 997.031 1547.81 L997.031 1543.29 Q998.976 1544.43 1001.29 1545.01 Q1003.61 1545.58 1006.13 1545.58 Q1010.53 1545.58 1012.82 1543.85 Q1015.13 1542.11 1015.13 1538.8 Q1015.13 1535.75 1012.98 1534.03 Q1010.85 1532.3 1007.03 1532.3 L1003 1532.3 L1003 1528.45 L1007.22 1528.45 Q1010.67 1528.45 1012.49 1527.09 Q1014.32 1525.7 1014.32 1523.11 Q1014.32 1520.45 1012.42 1519.03 Q1010.55 1517.6 1007.03 1517.6 Q1005.11 1517.6 1002.91 1518.01 Q1000.71 1518.43 998.073 1519.31 L998.073 1515.14 Q1000.74 1514.4 1003.05 1514.03 Q1005.39 1513.66 1007.45 1513.66 Q1012.77 1513.66 1015.87 1516.09 Q1018.98 1518.5 1018.98 1522.62 Q1018.98 1525.49 1017.33 1527.48 Q1015.69 1529.45 1012.66 1530.21 Z" fill="#000000" fill-rule="evenodd" fill-opacity="1"></path><path clip-path="url(#clip900)" d="M1459.53 1518.36 L1447.73 1536.81 L1459.53 1536.81 L1459.53 1518.36 M1458.31 1514.29 L1464.19 1514.29 L1464.19 1536.81 L1469.12 1536.81 L1469.12 1540.7 L1464.19 1540.7 L1464.19 1548.85 L1459.53 1548.85 L1459.53 1540.7 L1443.93 1540.7 L1443.93 1536.19 L1458.31 1514.29 Z" fill="#000000" fill-rule="evenodd" fill-opacity="1"></path><path clip-path="url(#clip900)" d="M1894.92 1514.29 L1913.27 1514.29 L1913.27 1518.22 L1899.2 1518.22 L1899.2 1526.7 Q1900.22 1526.35 1901.24 1526.19 Q1902.26 1526 1903.27 1526 Q1909.06 1526 1912.44 1529.17 Q1915.82 1532.34 1915.82 1537.76 Q1915.82 1543.34 1912.35 1546.44 Q1908.88 1549.52 1902.56 1549.52 Q1900.38 1549.52 1898.11 1549.15 Q1895.87 1548.78 1893.46 1548.04 L1893.46 1543.34 Q1895.54 1544.47 1897.77 1545.03 Q1899.99 1545.58 1902.46 1545.58 Q1906.47 1545.58 1908.81 1543.48 Q1911.14 1541.37 1911.14 1537.76 Q1911.14 1534.15 1908.81 1532.04 Q1906.47 1529.94 1902.46 1529.94 Q1900.59 1529.94 1898.71 1530.35 Q1896.86 1530.77 1894.92 1531.65 L1894.92 1514.29 Z" fill="#000000" fill-rule="evenodd" fill-opacity="1"></path><path clip-path="url(#clip900)" d="M2353.16 1529.7 Q2350.01 1529.7 2348.16 1531.86 Q2346.33 1534.01 2346.33 1537.76 Q2346.33 1541.49 2348.16 1543.66 Q2350.01 1545.82 2353.16 1545.82 Q2356.31 1545.82 2358.14 1543.66 Q2359.99 1541.49 2359.99 1537.76 Q2359.99 1534.01 2358.14 1531.86 Q2356.31 1529.7 2353.16 1529.7 M2362.44 1515.05 L2362.44 1519.31 Q2360.68 1518.48 2358.88 1518.04 Q2357.1 1517.6 2355.34 1517.6 Q2350.71 1517.6 2348.25 1520.72 Q2345.82 1523.85 2345.48 1530.17 Q2346.84 1528.15 2348.9 1527.09 Q2350.96 1526 2353.44 1526 Q2358.65 1526 2361.66 1529.17 Q2364.69 1532.32 2364.69 1537.76 Q2364.69 1543.08 2361.54 1546.3 Q2358.39 1549.52 2353.16 1549.52 Q2347.17 1549.52 2343.99 1544.94 Q2340.82 1540.33 2340.82 1531.6 Q2340.82 1523.41 2344.71 1518.55 Q2348.6 1513.66 2355.15 1513.66 Q2356.91 1513.66 2358.69 1514.01 Q2360.5 1514.36 2362.44 1515.05 Z" fill="#000000" fill-rule="evenodd" fill-opacity="1"></path><polyline clip-path="url(#clip902)" style="stroke:#000000; stroke-linecap:butt; stroke-linejoin:round; stroke-width:2; stroke-opacity:0.1; fill:none" points="
  112.177,1486.45 2352.76,1486.45 
  "></polyline>
<polyline clip-path="url(#clip902)" style="stroke:#000000; stroke-linecap:butt; stroke-linejoin:round; stroke-width:2; stroke-opacity:0.1; fill:none" points="
  112.177,1198.61 2352.76,1198.61 
  "></polyline>
<polyline clip-path="url(#clip902)" style="stroke:#000000; stroke-linecap:butt; stroke-linejoin:round; stroke-width:2; stroke-opacity:0.1; fill:none" points="
  112.177,910.766 2352.76,910.766 
  "></polyline>
<polyline clip-path="url(#clip902)" style="stroke:#000000; stroke-linecap:butt; stroke-linejoin:round; stroke-width:2; stroke-opacity:0.1; fill:none" points="
  112.177,622.926 2352.76,622.926 
  "></polyline>
<polyline clip-path="url(#clip902)" style="stroke:#000000; stroke-linecap:butt; stroke-linejoin:round; stroke-width:2; stroke-opacity:0.1; fill:none" points="
  112.177,335.085 2352.76,335.085 
  "></polyline>
<polyline clip-path="url(#clip902)" style="stroke:#000000; stroke-linecap:butt; stroke-linejoin:round; stroke-width:2; stroke-opacity:0.1; fill:none" points="
  112.177,47.2441 2352.76,47.2441 
  "></polyline>
<polyline clip-path="url(#clip900)" style="stroke:#000000; stroke-linecap:butt; stroke-linejoin:round; stroke-width:4; stroke-opacity:1; fill:none" points="
  112.177,1486.45 112.177,47.2441 
  "></polyline>
<polyline clip-path="url(#clip900)" style="stroke:#000000; stroke-linecap:butt; stroke-linejoin:round; stroke-width:4; stroke-opacity:1; fill:none" points="
  112.177,1486.45 131.075,1486.45 
  "></polyline>
<polyline clip-path="url(#clip900)" style="stroke:#000000; stroke-linecap:butt; stroke-linejoin:round; stroke-width:4; stroke-opacity:1; fill:none" points="
  112.177,1198.61 131.075,1198.61 
  "></polyline>
<polyline clip-path="url(#clip900)" style="stroke:#000000; stroke-linecap:butt; stroke-linejoin:round; stroke-width:4; stroke-opacity:1; fill:none" points="
  112.177,910.766 131.075,910.766 
  "></polyline>
<polyline clip-path="url(#clip900)" style="stroke:#000000; stroke-linecap:butt; stroke-linejoin:round; stroke-width:4; stroke-opacity:1; fill:none" points="
  112.177,622.926 131.075,622.926 
  "></polyline>
<polyline clip-path="url(#clip900)" style="stroke:#000000; stroke-linecap:butt; stroke-linejoin:round; stroke-width:4; stroke-opacity:1; fill:none" points="
  112.177,335.085 131.075,335.085 
  "></polyline>
<polyline clip-path="url(#clip900)" style="stroke:#000000; stroke-linecap:butt; stroke-linejoin:round; stroke-width:4; stroke-opacity:1; fill:none" points="
  112.177,47.2441 131.075,47.2441 
  "></polyline>
<path clip-path="url(#clip900)" d="M56.2699 1499.79 L63.9087 1499.79 L63.9087 1473.43 L55.5986 1475.09 L55.5986 1470.83 L63.8624 1469.17 L68.5383 1469.17 L68.5383 1499.79 L76.1772 1499.79 L76.1772 1503.73 L56.2699 1503.73 L56.2699 1499.79 Z" fill="#000000" fill-rule="evenodd" fill-opacity="1"></path><path clip-path="url(#clip900)" d="M59.8578 1211.95 L76.1772 1211.95 L76.1772 1215.89 L54.2328 1215.89 L54.2328 1211.95 Q56.8949 1209.2 61.4782 1204.57 Q66.0846 1199.91 67.2652 1198.57 Q69.5105 1196.05 70.3902 1194.31 Q71.2929 1192.55 71.2929 1190.86 Q71.2929 1188.11 69.3485 1186.37 Q67.4272 1184.64 64.3254 1184.64 Q62.1263 1184.64 59.6726 1185.4 Q57.2421 1186.17 54.4643 1187.72 L54.4643 1182.99 Q57.2884 1181.86 59.7421 1181.28 Q62.1958 1180.7 64.2328 1180.7 Q69.6031 1180.7 72.7976 1183.39 Q75.992 1186.07 75.992 1190.56 Q75.992 1192.69 75.1818 1194.61 Q74.3948 1196.51 72.2883 1199.1 Q71.7096 1199.78 68.6078 1202.99 Q65.5059 1206.19 59.8578 1211.95 Z" fill="#000000" fill-rule="evenodd" fill-opacity="1"></path><path clip-path="url(#clip900)" d="M69.0476 909.412 Q72.404 910.13 74.279 912.398 Q76.1772 914.667 76.1772 918 Q76.1772 923.116 72.6587 925.917 Q69.1402 928.718 62.6587 928.718 Q60.4828 928.718 58.168 928.278 Q55.8764 927.861 53.4227 927.005 L53.4227 922.491 Q55.3671 923.625 57.6819 924.204 Q59.9967 924.782 62.5198 924.782 Q66.918 924.782 69.2096 923.046 Q71.5244 921.31 71.5244 918 Q71.5244 914.945 69.3717 913.232 Q67.242 911.496 63.4226 911.496 L59.3949 911.496 L59.3949 907.653 L63.6078 907.653 Q67.0569 907.653 68.8855 906.287 Q70.7142 904.898 70.7142 902.306 Q70.7142 899.644 68.8161 898.232 Q66.9411 896.797 63.4226 896.797 Q61.5013 896.797 59.3023 897.213 Q57.1032 897.63 54.4643 898.509 L54.4643 894.343 Q57.1264 893.602 59.4412 893.232 Q61.7791 892.861 63.8393 892.861 Q69.1633 892.861 72.2652 895.292 Q75.367 897.699 75.367 901.82 Q75.367 904.69 73.7235 906.681 Q72.08 908.648 69.0476 909.412 Z" fill="#000000" fill-rule="evenodd" fill-opacity="1"></path><path clip-path="url(#clip900)" d="M66.5939 609.72 L54.7884 628.169 L66.5939 628.169 L66.5939 609.72 M65.367 605.646 L71.2466 605.646 L71.2466 628.169 L76.1772 628.169 L76.1772 632.058 L71.2466 632.058 L71.2466 640.206 L66.5939 640.206 L66.5939 632.058 L50.9921 632.058 L50.9921 627.544 L65.367 605.646 Z" fill="#000000" fill-rule="evenodd" fill-opacity="1"></path><path clip-path="url(#clip900)" d="M55.2745 317.805 L73.6309 317.805 L73.6309 321.74 L59.5569 321.74 L59.5569 330.212 Q60.5754 329.865 61.5939 329.703 Q62.6124 329.518 63.6309 329.518 Q69.418 329.518 72.7976 332.689 Q76.1772 335.86 76.1772 341.277 Q76.1772 346.856 72.705 349.957 Q69.2328 353.036 62.9134 353.036 Q60.7374 353.036 58.4689 352.666 Q56.2236 352.295 53.8162 351.555 L53.8162 346.856 Q55.8995 347.99 58.1217 348.545 Q60.3439 349.101 62.8208 349.101 Q66.8254 349.101 69.1633 346.995 Q71.5013 344.888 71.5013 341.277 Q71.5013 337.666 69.1633 335.559 Q66.8254 333.453 62.8208 333.453 Q60.9458 333.453 59.0708 333.87 Q57.2189 334.286 55.2745 335.166 L55.2745 317.805 Z" fill="#000000" fill-rule="evenodd" fill-opacity="1"></path><path clip-path="url(#clip900)" d="M64.6495 45.3807 Q61.5013 45.3807 59.6495 47.5334 Q57.8208 49.6862 57.8208 53.4362 Q57.8208 57.163 59.6495 59.3389 Q61.5013 61.4917 64.6495 61.4917 Q67.7976 61.4917 69.6263 59.3389 Q71.4781 57.163 71.4781 53.4362 Q71.4781 49.6862 69.6263 47.5334 Q67.7976 45.3807 64.6495 45.3807 M73.9318 30.728 L73.9318 34.9872 Q72.1726 34.1539 70.367 33.7141 Q68.5846 33.2743 66.8254 33.2743 Q62.1958 33.2743 59.7421 36.3992 Q57.3115 39.5242 56.9643 45.8436 Q58.33 43.8298 60.3902 42.765 Q62.4504 41.677 64.9272 41.677 Q70.1355 41.677 73.1448 44.8483 Q76.1772 47.9964 76.1772 53.4362 Q76.1772 58.7602 73.029 61.9778 Q69.8809 65.1954 64.6495 65.1954 Q58.6541 65.1954 55.4828 60.6121 Q52.3116 56.0056 52.3116 47.2788 Q52.3116 39.0844 56.2004 34.2233 Q60.0893 29.3391 66.6402 29.3391 Q68.3994 29.3391 70.1818 29.6863 Q71.9874 30.0335 73.9318 30.728 Z" fill="#000000" fill-rule="evenodd" fill-opacity="1"></path><circle clip-path="url(#clip902)" cx="485.607" cy="1246.58" r="21" fill="#009af9" fill-rule="evenodd" fill-opacity="1" stroke="#000000" stroke-opacity="1" stroke-width="3.2"></circle>
<circle clip-path="url(#clip902)" cx="485.607" cy="766.846" r="21" fill="#009af9" fill-rule="evenodd" fill-opacity="1" stroke="#000000" stroke-opacity="1" stroke-width="3.2"></circle>
<circle clip-path="url(#clip902)" cx="485.607" cy="287.111" r="21" fill="#009af9" fill-rule="evenodd" fill-opacity="1" stroke="#000000" stroke-opacity="1" stroke-width="3.2"></circle>
<circle clip-path="url(#clip902)" cx="1232.47" cy="1246.58" r="21" fill="#009af9" fill-rule="evenodd" fill-opacity="1" stroke="#000000" stroke-opacity="1" stroke-width="3.2"></circle>
<circle clip-path="url(#clip902)" cx="1232.47" cy="766.846" r="21" fill="#009af9" fill-rule="evenodd" fill-opacity="1" stroke="#000000" stroke-opacity="1" stroke-width="3.2"></circle>
<circle clip-path="url(#clip902)" cx="1232.47" cy="287.111" r="21" fill="#009af9" fill-rule="evenodd" fill-opacity="1" stroke="#000000" stroke-opacity="1" stroke-width="3.2"></circle>
<circle clip-path="url(#clip902)" cx="1979.33" cy="1246.58" r="21" fill="#009af9" fill-rule="evenodd" fill-opacity="1" stroke="#000000" stroke-opacity="1" stroke-width="3.2"></circle>
<circle clip-path="url(#clip902)" cx="1979.33" cy="766.846" r="21" fill="#009af9" fill-rule="evenodd" fill-opacity="1" stroke="#000000" stroke-opacity="1" stroke-width="3.2"></circle>
<circle clip-path="url(#clip902)" cx="1979.33" cy="287.111" r="21" fill="#009af9" fill-rule="evenodd" fill-opacity="1" stroke="#000000" stroke-opacity="1" stroke-width="3.2"></circle>
<polyline clip-path="url(#clip902)" style="stroke:#e26f46; stroke-linecap:butt; stroke-linejoin:round; stroke-width:4; stroke-opacity:1; fill:none" points="
  112.177,1006.71 112.177,1486.45 859.037,1486.45 859.037,1006.71 112.177,1006.71 
  "></polyline>
<polyline clip-path="url(#clip902)" style="stroke:#e26f46; stroke-linecap:butt; stroke-linejoin:round; stroke-width:4; stroke-opacity:1; fill:none" points="
  112.177,526.979 112.177,1006.71 859.037,1006.71 859.037,526.979 859.037,526.979 112.177,526.979 
  "></polyline>
<polyline clip-path="url(#clip902)" style="stroke:#e26f46; stroke-linecap:butt; stroke-linejoin:round; stroke-width:4; stroke-opacity:1; fill:none" points="
  112.177,47.2441 112.177,526.979 859.037,526.979 859.037,47.2441 112.177,47.2441 
  "></polyline>
<polyline clip-path="url(#clip902)" style="stroke:#e26f46; stroke-linecap:butt; stroke-linejoin:round; stroke-width:4; stroke-opacity:1; fill:none" points="
  859.037,1006.71 859.037,1486.45 1605.9,1486.45 1605.9,1006.71 859.037,1006.71 
  "></polyline>
<polyline clip-path="url(#clip902)" style="stroke:#e26f46; stroke-linecap:butt; stroke-linejoin:round; stroke-width:4; stroke-opacity:1; fill:none" points="
  859.037,526.979 859.037,1006.71 1605.9,1006.71 1605.9,526.979 859.037,526.979 
  "></polyline>
<polyline clip-path="url(#clip902)" style="stroke:#e26f46; stroke-linecap:butt; stroke-linejoin:round; stroke-width:4; stroke-opacity:1; fill:none" points="
  859.037,47.2441 859.037,526.979 859.037,526.979 1605.9,526.979 1605.9,47.2441 859.037,47.2441 
  "></polyline>
<polyline clip-path="url(#clip902)" style="stroke:#e26f46; stroke-linecap:butt; stroke-linejoin:round; stroke-width:4; stroke-opacity:1; fill:none" points="
  1605.9,1006.71 1605.9,1486.45 2352.76,1486.45 2352.76,1006.71 1605.9,1006.71 
  "></polyline>
<polyline clip-path="url(#clip902)" style="stroke:#e26f46; stroke-linecap:butt; stroke-linejoin:round; stroke-width:4; stroke-opacity:1; fill:none" points="
  1605.9,526.979 1605.9,1006.71 2352.76,1006.71 2352.76,526.979 1605.9,526.979 
  "></polyline>
<polyline clip-path="url(#clip902)" style="stroke:#e26f46; stroke-linecap:butt; stroke-linejoin:round; stroke-width:4; stroke-opacity:1; fill:none" points="
  1605.9,47.2441 1605.9,526.979 2352.76,526.979 2352.76,47.2441 1605.9,47.2441 
  "></polyline>
<path clip-path="url(#clip900)" d="
M186.863 250.738 L731.903 250.738 L731.903 95.2176 L186.863 95.2176  Z
  " fill="#ffffff" fill-rule="evenodd" fill-opacity="1"></path>
<polyline clip-path="url(#clip900)" style="stroke:#000000; stroke-linecap:butt; stroke-linejoin:round; stroke-width:4; stroke-opacity:1; fill:none" points="
  186.863,250.738 731.903,250.738 731.903,95.2176 186.863,95.2176 186.863,250.738 
  "></polyline>
<circle clip-path="url(#clip900)" cx="286.444" cy="147.058" r="23" fill="#009af9" fill-rule="evenodd" fill-opacity="1" stroke="#000000" stroke-opacity="1" stroke-width="3.41333"></circle>
<path clip-path="url(#clip900)" d="M404.938 151.074 Q404.938 146.444 403.016 143.898 Q401.118 141.352 397.669 141.352 Q394.243 141.352 392.322 143.898 Q390.424 146.444 390.424 151.074 Q390.424 155.68 392.322 158.226 Q394.243 160.773 397.669 160.773 Q401.118 160.773 403.016 158.226 Q404.938 155.68 404.938 151.074 M409.197 161.12 Q409.197 167.74 406.257 170.958 Q403.317 174.199 397.252 174.199 Q395.007 174.199 393.016 173.851 Q391.026 173.527 389.151 172.833 L389.151 168.689 Q391.026 169.708 392.854 170.194 Q394.683 170.68 396.581 170.68 Q400.771 170.68 402.854 168.481 Q404.938 166.305 404.938 161.884 L404.938 159.777 Q403.618 162.069 401.558 163.203 Q399.498 164.338 396.627 164.338 Q391.859 164.338 388.942 160.703 Q386.026 157.069 386.026 151.074 Q386.026 145.055 388.942 141.421 Q391.859 137.787 396.627 137.787 Q399.498 137.787 401.558 138.921 Q403.618 140.055 404.938 142.347 L404.938 138.412 L409.197 138.412 L409.197 161.12 Z" fill="#000000" fill-rule="evenodd" fill-opacity="1"></path><path clip-path="url(#clip900)" d="M440.146 150.31 L440.146 152.393 L420.563 152.393 Q420.84 156.791 423.201 159.106 Q425.586 161.398 429.822 161.398 Q432.275 161.398 434.567 160.796 Q436.882 160.194 439.15 158.99 L439.15 163.018 Q436.859 163.99 434.451 164.5 Q432.044 165.009 429.567 165.009 Q423.363 165.009 419.729 161.398 Q416.118 157.787 416.118 151.629 Q416.118 145.264 419.544 141.537 Q422.993 137.787 428.826 137.787 Q434.058 137.787 437.09 141.166 Q440.146 144.523 440.146 150.31 M435.887 149.06 Q435.84 145.565 433.919 143.481 Q432.021 141.398 428.873 141.398 Q425.308 141.398 423.155 143.412 Q421.026 145.426 420.701 149.083 L435.887 149.06 Z" fill="#000000" fill-rule="evenodd" fill-opacity="1"></path><path clip-path="url(#clip900)" d="M468.687 148.689 L468.687 164.338 L464.428 164.338 L464.428 148.828 Q464.428 145.148 462.993 143.319 Q461.558 141.49 458.687 141.49 Q455.238 141.49 453.248 143.69 Q451.257 145.889 451.257 149.685 L451.257 164.338 L446.974 164.338 L446.974 138.412 L451.257 138.412 L451.257 142.44 Q452.785 140.102 454.845 138.944 Q456.928 137.787 459.636 137.787 Q464.104 137.787 466.396 140.565 Q468.687 143.319 468.687 148.689 Z" fill="#000000" fill-rule="evenodd" fill-opacity="1"></path><path clip-path="url(#clip900)" d="M499.358 150.31 L499.358 152.393 L479.775 152.393 Q480.053 156.791 482.414 159.106 Q484.798 161.398 489.034 161.398 Q491.488 161.398 493.78 160.796 Q496.095 160.194 498.363 158.99 L498.363 163.018 Q496.071 163.99 493.664 164.5 Q491.257 165.009 488.78 165.009 Q482.576 165.009 478.942 161.398 Q475.331 157.787 475.331 151.629 Q475.331 145.264 478.757 141.537 Q482.206 137.787 488.039 137.787 Q493.27 137.787 496.303 141.166 Q499.358 144.523 499.358 150.31 M495.099 149.06 Q495.053 145.565 493.132 143.481 Q491.233 141.398 488.085 141.398 Q484.521 141.398 482.368 143.412 Q480.238 145.426 479.914 149.083 L495.099 149.06 Z" fill="#000000" fill-rule="evenodd" fill-opacity="1"></path><path clip-path="url(#clip900)" d="M521.372 142.393 Q520.655 141.977 519.798 141.791 Q518.965 141.583 517.946 141.583 Q514.335 141.583 512.391 143.944 Q510.469 146.282 510.469 150.68 L510.469 164.338 L506.187 164.338 L506.187 138.412 L510.469 138.412 L510.469 142.44 Q511.812 140.078 513.965 138.944 Q516.118 137.787 519.196 137.787 Q519.636 137.787 520.168 137.856 Q520.701 137.903 521.349 138.018 L521.372 142.393 Z" fill="#000000" fill-rule="evenodd" fill-opacity="1"></path><path clip-path="url(#clip900)" d="M537.622 151.305 Q532.46 151.305 530.469 152.486 Q528.479 153.666 528.479 156.514 Q528.479 158.782 529.96 160.125 Q531.465 161.444 534.034 161.444 Q537.576 161.444 539.705 158.944 Q541.858 156.421 541.858 152.254 L541.858 151.305 L537.622 151.305 M546.117 149.546 L546.117 164.338 L541.858 164.338 L541.858 160.402 Q540.4 162.763 538.224 163.898 Q536.048 165.009 532.9 165.009 Q528.918 165.009 526.557 162.787 Q524.219 160.541 524.219 156.791 Q524.219 152.416 527.136 150.194 Q530.076 147.972 535.886 147.972 L541.858 147.972 L541.858 147.555 Q541.858 144.615 539.914 143.018 Q537.992 141.398 534.497 141.398 Q532.275 141.398 530.168 141.93 Q528.062 142.463 526.118 143.527 L526.118 139.592 Q528.455 138.69 530.655 138.25 Q532.854 137.787 534.937 137.787 Q540.562 137.787 543.34 140.703 Q546.117 143.62 546.117 149.546 Z" fill="#000000" fill-rule="evenodd" fill-opacity="1"></path><path clip-path="url(#clip900)" d="M559.103 131.051 L559.103 138.412 L567.877 138.412 L567.877 141.722 L559.103 141.722 L559.103 155.796 Q559.103 158.967 559.96 159.87 Q560.84 160.773 563.502 160.773 L567.877 160.773 L567.877 164.338 L563.502 164.338 Q558.571 164.338 556.696 162.509 Q554.821 160.657 554.821 155.796 L554.821 141.722 L551.696 141.722 L551.696 138.412 L554.821 138.412 L554.821 131.051 L559.103 131.051 Z" fill="#000000" fill-rule="evenodd" fill-opacity="1"></path><path clip-path="url(#clip900)" d="M583.525 141.398 Q580.099 141.398 578.108 144.083 Q576.117 146.745 576.117 151.398 Q576.117 156.051 578.085 158.736 Q580.076 161.398 583.525 161.398 Q586.927 161.398 588.918 158.713 Q590.909 156.027 590.909 151.398 Q590.909 146.791 588.918 144.106 Q586.927 141.398 583.525 141.398 M583.525 137.787 Q589.08 137.787 592.251 141.398 Q595.423 145.009 595.423 151.398 Q595.423 157.764 592.251 161.398 Q589.08 165.009 583.525 165.009 Q577.946 165.009 574.775 161.398 Q571.627 157.764 571.627 151.398 Q571.627 145.009 574.775 141.398 Q577.946 137.787 583.525 137.787 Z" fill="#000000" fill-rule="evenodd" fill-opacity="1"></path><path clip-path="url(#clip900)" d="M617.506 142.393 Q616.788 141.977 615.932 141.791 Q615.099 141.583 614.08 141.583 Q610.469 141.583 608.524 143.944 Q606.603 146.282 606.603 150.68 L606.603 164.338 L602.321 164.338 L602.321 138.412 L606.603 138.412 L606.603 142.44 Q607.946 140.078 610.099 138.944 Q612.251 137.787 615.33 137.787 Q615.77 137.787 616.302 137.856 Q616.835 137.903 617.483 138.018 L617.506 142.393 Z" fill="#000000" fill-rule="evenodd" fill-opacity="1"></path><path clip-path="url(#clip900)" d="M638.501 139.176 L638.501 143.203 Q636.696 142.277 634.751 141.815 Q632.807 141.352 630.723 141.352 Q627.552 141.352 625.955 142.324 Q624.381 143.296 624.381 145.24 Q624.381 146.722 625.515 147.578 Q626.649 148.412 630.075 149.176 L631.534 149.5 Q636.071 150.472 637.969 152.254 Q639.89 154.014 639.89 157.185 Q639.89 160.796 637.02 162.902 Q634.173 165.009 629.173 165.009 Q627.089 165.009 624.821 164.592 Q622.575 164.199 620.075 163.388 L620.075 158.99 Q622.436 160.217 624.728 160.842 Q627.02 161.444 629.265 161.444 Q632.274 161.444 633.895 160.426 Q635.515 159.384 635.515 157.509 Q635.515 155.773 634.335 154.847 Q633.177 153.921 629.219 153.064 L627.737 152.717 Q623.779 151.884 622.02 150.171 Q620.261 148.435 620.261 145.426 Q620.261 141.768 622.853 139.778 Q625.446 137.787 630.214 137.787 Q632.575 137.787 634.659 138.134 Q636.742 138.481 638.501 139.176 Z" fill="#000000" fill-rule="evenodd" fill-opacity="1"></path><polyline clip-path="url(#clip900)" style="stroke:#e26f46; stroke-linecap:butt; stroke-linejoin:round; stroke-width:4; stroke-opacity:1; fill:none" points="
  211.758,198.898 361.13,198.898 
  "></polyline>
<path clip-path="url(#clip900)" d="M399.22 216.178 L386.026 181.618 L390.91 181.618 L401.859 210.715 L412.831 181.618 L417.692 181.618 L404.521 216.178 L399.22 216.178 Z" fill="#000000" fill-rule="evenodd" fill-opacity="1"></path><path clip-path="url(#clip900)" d="M428.919 193.238 Q425.493 193.238 423.502 195.923 Q421.512 198.585 421.512 203.238 Q421.512 207.891 423.479 210.576 Q425.47 213.238 428.919 213.238 Q432.322 213.238 434.312 210.553 Q436.303 207.867 436.303 203.238 Q436.303 198.631 434.312 195.946 Q432.322 193.238 428.919 193.238 M428.919 189.627 Q434.475 189.627 437.646 193.238 Q440.817 196.849 440.817 203.238 Q440.817 209.604 437.646 213.238 Q434.475 216.849 428.919 216.849 Q423.34 216.849 420.169 213.238 Q417.021 209.604 417.021 203.238 Q417.021 196.849 420.169 193.238 Q423.34 189.627 428.919 189.627 Z" fill="#000000" fill-rule="evenodd" fill-opacity="1"></path><path clip-path="url(#clip900)" d="M462.9 194.233 Q462.183 193.817 461.326 193.631 Q460.493 193.423 459.474 193.423 Q455.863 193.423 453.919 195.784 Q451.998 198.122 451.998 202.52 L451.998 216.178 L447.715 216.178 L447.715 190.252 L451.998 190.252 L451.998 194.28 Q453.34 191.918 455.493 190.784 Q457.646 189.627 460.724 189.627 Q461.164 189.627 461.697 189.696 Q462.229 189.743 462.877 189.858 L462.9 194.233 Z" fill="#000000" fill-rule="evenodd" fill-opacity="1"></path><path clip-path="url(#clip900)" d="M476.372 193.238 Q472.947 193.238 470.956 195.923 Q468.965 198.585 468.965 203.238 Q468.965 207.891 470.933 210.576 Q472.923 213.238 476.372 213.238 Q479.775 213.238 481.766 210.553 Q483.757 207.867 483.757 203.238 Q483.757 198.631 481.766 195.946 Q479.775 193.238 476.372 193.238 M476.372 189.627 Q481.928 189.627 485.099 193.238 Q488.271 196.849 488.271 203.238 Q488.271 209.604 485.099 213.238 Q481.928 216.849 476.372 216.849 Q470.794 216.849 467.622 213.238 Q464.474 209.604 464.474 203.238 Q464.474 196.849 467.622 193.238 Q470.794 189.627 476.372 189.627 Z" fill="#000000" fill-rule="evenodd" fill-opacity="1"></path><path clip-path="url(#clip900)" d="M516.881 200.529 L516.881 216.178 L512.622 216.178 L512.622 200.668 Q512.622 196.988 511.187 195.159 Q509.752 193.33 506.882 193.33 Q503.432 193.33 501.442 195.53 Q499.451 197.729 499.451 201.525 L499.451 216.178 L495.169 216.178 L495.169 190.252 L499.451 190.252 L499.451 194.28 Q500.979 191.942 503.039 190.784 Q505.122 189.627 507.831 189.627 Q512.298 189.627 514.59 192.405 Q516.881 195.159 516.881 200.529 Z" fill="#000000" fill-rule="evenodd" fill-opacity="1"></path><path clip-path="url(#clip900)" d="M535.423 193.238 Q531.997 193.238 530.006 195.923 Q528.016 198.585 528.016 203.238 Q528.016 207.891 529.983 210.576 Q531.974 213.238 535.423 213.238 Q538.826 213.238 540.817 210.553 Q542.807 207.867 542.807 203.238 Q542.807 198.631 540.817 195.946 Q538.826 193.238 535.423 193.238 M535.423 189.627 Q540.979 189.627 544.15 193.238 Q547.321 196.849 547.321 203.238 Q547.321 209.604 544.15 213.238 Q540.979 216.849 535.423 216.849 Q529.844 216.849 526.673 213.238 Q523.525 209.604 523.525 203.238 Q523.525 196.849 526.673 193.238 Q529.844 189.627 535.423 189.627 Z" fill="#000000" fill-rule="evenodd" fill-opacity="1"></path><path clip-path="url(#clip900)" d="M554.381 190.252 L558.641 190.252 L558.641 216.178 L554.381 216.178 L554.381 190.252 M554.381 180.159 L558.641 180.159 L558.641 185.553 L554.381 185.553 L554.381 180.159 Z" fill="#000000" fill-rule="evenodd" fill-opacity="1"></path><path clip-path="url(#clip900)" d="M601.279 191.247 L601.279 195.229 Q599.474 194.233 597.645 193.747 Q595.839 193.238 593.988 193.238 Q589.844 193.238 587.552 195.877 Q585.261 198.492 585.261 203.238 Q585.261 207.983 587.552 210.622 Q589.844 213.238 593.988 213.238 Q595.839 213.238 597.645 212.752 Q599.474 212.242 601.279 211.247 L601.279 215.182 Q599.497 216.016 597.575 216.432 Q595.677 216.849 593.525 216.849 Q587.668 216.849 584.219 213.168 Q580.77 209.488 580.77 203.238 Q580.77 196.895 584.242 193.261 Q587.738 189.627 593.802 189.627 Q595.77 189.627 597.645 190.043 Q599.52 190.437 601.279 191.247 Z" fill="#000000" fill-rule="evenodd" fill-opacity="1"></path><path clip-path="url(#clip900)" d="M630.862 202.15 L630.862 204.233 L611.279 204.233 Q611.557 208.631 613.918 210.946 Q616.302 213.238 620.538 213.238 Q622.992 213.238 625.284 212.636 Q627.598 212.034 629.867 210.83 L629.867 214.858 Q627.575 215.83 625.168 216.34 Q622.761 216.849 620.284 216.849 Q614.08 216.849 610.446 213.238 Q606.835 209.627 606.835 203.469 Q606.835 197.104 610.261 193.377 Q613.71 189.627 619.543 189.627 Q624.774 189.627 627.807 193.006 Q630.862 196.363 630.862 202.15 M626.603 200.9 Q626.557 197.405 624.636 195.321 Q622.737 193.238 619.589 193.238 Q616.024 193.238 613.872 195.252 Q611.742 197.266 611.418 200.923 L626.603 200.9 Z" fill="#000000" fill-rule="evenodd" fill-opacity="1"></path><path clip-path="url(#clip900)" d="M637.853 180.159 L642.112 180.159 L642.112 216.178 L637.853 216.178 L637.853 180.159 Z" fill="#000000" fill-rule="evenodd" fill-opacity="1"></path><path clip-path="url(#clip900)" d="M651.024 180.159 L655.284 180.159 L655.284 216.178 L651.024 216.178 L651.024 180.159 Z" fill="#000000" fill-rule="evenodd" fill-opacity="1"></path><path clip-path="url(#clip900)" d="M680.723 191.016 L680.723 195.043 Q678.918 194.117 676.973 193.655 Q675.029 193.192 672.945 193.192 Q669.774 193.192 668.177 194.164 Q666.603 195.136 666.603 197.08 Q666.603 198.562 667.737 199.418 Q668.871 200.252 672.297 201.016 L673.756 201.34 Q678.293 202.312 680.191 204.094 Q682.112 205.854 682.112 209.025 Q682.112 212.636 679.242 214.742 Q676.395 216.849 671.395 216.849 Q669.311 216.849 667.043 216.432 Q664.797 216.039 662.297 215.228 L662.297 210.83 Q664.658 212.057 666.95 212.682 Q669.242 213.284 671.487 213.284 Q674.496 213.284 676.117 212.266 Q677.737 211.224 677.737 209.349 Q677.737 207.613 676.557 206.687 Q675.399 205.761 671.441 204.904 L669.959 204.557 Q666.001 203.724 664.242 202.011 Q662.483 200.275 662.483 197.266 Q662.483 193.608 665.075 191.618 Q667.668 189.627 672.436 189.627 Q674.797 189.627 676.881 189.974 Q678.964 190.321 680.723 191.016 Z" fill="#000000" fill-rule="evenodd" fill-opacity="1"></path><path clip-path="url(#clip900)" d="M477.738 1261.3 L491.106 1261.3 L491.106 1215.16 L476.563 1218.08 L476.563 1210.62 L491.025 1207.71 L499.208 1207.71 L499.208 1261.3 L512.576 1261.3 L512.576 1268.19 L477.738 1268.19 L477.738 1261.3 Z" fill="#000000" fill-rule="evenodd" fill-opacity="1"></path><path clip-path="url(#clip900)" d="M485.212 781.564 L513.771 781.564 L513.771 788.451 L475.368 788.451 L475.368 781.564 Q480.027 776.744 488.047 768.642 Q496.109 760.5 498.175 758.15 Q502.104 753.735 503.643 750.696 Q505.223 747.618 505.223 744.66 Q505.223 739.84 501.82 736.802 Q498.458 733.764 493.03 733.764 Q489.182 733.764 484.888 735.1 Q480.634 736.437 475.773 739.151 L475.773 730.887 Q480.715 728.902 485.009 727.89 Q489.303 726.877 492.868 726.877 Q502.266 726.877 507.856 731.576 Q513.446 736.275 513.446 744.134 Q513.446 747.861 512.029 751.223 Q510.651 754.545 506.965 759.082 Q505.952 760.256 500.524 765.887 Q495.096 771.477 485.212 781.564 Z" fill="#000000" fill-rule="evenodd" fill-opacity="1"></path><path clip-path="url(#clip900)" d="M502.003 276.106 Q507.876 277.362 511.158 281.332 Q514.479 285.302 514.479 291.135 Q514.479 300.088 508.322 304.989 Q502.165 309.891 490.822 309.891 Q487.014 309.891 482.963 309.121 Q478.953 308.392 474.659 306.893 L474.659 298.994 Q478.062 300.979 482.113 301.992 Q486.164 303.004 490.579 303.004 Q498.276 303.004 502.286 299.966 Q506.337 296.928 506.337 291.135 Q506.337 285.788 502.57 282.79 Q498.843 279.752 492.159 279.752 L485.11 279.752 L485.11 273.028 L492.483 273.028 Q498.519 273.028 501.719 270.638 Q504.919 268.207 504.919 263.67 Q504.919 259.012 501.598 256.541 Q498.316 254.029 492.159 254.029 Q488.797 254.029 484.948 254.758 Q481.1 255.487 476.482 257.027 L476.482 249.735 Q481.141 248.439 485.191 247.791 Q489.283 247.142 492.888 247.142 Q502.205 247.142 507.633 251.396 Q513.062 255.609 513.062 262.819 Q513.062 267.843 510.186 271.326 Q507.309 274.77 502.003 276.106 Z" fill="#000000" fill-rule="evenodd" fill-opacity="1"></path><path clip-path="url(#clip900)" d="M1246.7 1214.83 L1226.04 1247.12 L1246.7 1247.12 L1246.7 1214.83 M1244.55 1207.71 L1254.84 1207.71 L1254.84 1247.12 L1263.47 1247.12 L1263.47 1253.93 L1254.84 1253.93 L1254.84 1268.19 L1246.7 1268.19 L1246.7 1253.93 L1219.39 1253.93 L1219.39 1246.03 L1244.55 1207.71 Z" fill="#000000" fill-rule="evenodd" fill-opacity="1"></path><path clip-path="url(#clip900)" d="M1224.42 727.971 L1256.54 727.971 L1256.54 734.857 L1231.91 734.857 L1231.91 749.684 Q1233.69 749.076 1235.47 748.792 Q1237.26 748.468 1239.04 748.468 Q1249.17 748.468 1255.08 754.018 Q1260.99 759.568 1260.99 769.047 Q1260.99 778.81 1254.92 784.238 Q1248.84 789.626 1237.78 789.626 Q1233.98 789.626 1230.01 788.977 Q1226.08 788.329 1221.86 787.033 L1221.86 778.81 Q1225.51 780.795 1229.4 781.767 Q1233.29 782.739 1237.62 782.739 Q1244.63 782.739 1248.72 779.053 Q1252.81 775.366 1252.81 769.047 Q1252.81 762.728 1248.72 759.041 Q1244.63 755.355 1237.62 755.355 Q1234.34 755.355 1231.06 756.084 Q1227.82 756.813 1224.42 758.353 L1224.42 727.971 Z" fill="#000000" fill-rule="evenodd" fill-opacity="1"></path><path clip-path="url(#clip900)" d="M1242.14 275.215 Q1236.63 275.215 1233.39 278.983 Q1230.19 282.75 1230.19 289.312 Q1230.19 295.834 1233.39 299.642 Q1236.63 303.409 1242.14 303.409 Q1247.65 303.409 1250.85 299.642 Q1254.09 295.834 1254.09 289.312 Q1254.09 282.75 1250.85 278.983 Q1247.65 275.215 1242.14 275.215 M1258.38 249.573 L1258.38 257.027 Q1255.3 255.568 1252.14 254.799 Q1249.02 254.029 1245.95 254.029 Q1237.84 254.029 1233.55 259.498 Q1229.3 264.966 1228.69 276.025 Q1231.08 272.501 1234.68 270.638 Q1238.29 268.734 1242.62 268.734 Q1251.74 268.734 1257 274.283 Q1262.31 279.793 1262.31 289.312 Q1262.31 298.629 1256.8 304.26 Q1251.29 309.891 1242.14 309.891 Q1231.65 309.891 1226.1 301.87 Q1220.55 293.809 1220.55 278.537 Q1220.55 264.197 1227.35 255.69 Q1234.16 247.142 1245.62 247.142 Q1248.7 247.142 1251.82 247.75 Q1254.98 248.358 1258.38 249.573 Z" fill="#000000" fill-rule="evenodd" fill-opacity="1"></path><path clip-path="url(#clip900)" d="M1968.84 1207.71 L2007.73 1207.71 L2007.73 1211.19 L1985.78 1268.19 L1977.23 1268.19 L1997.89 1214.59 L1968.84 1214.59 L1968.84 1207.71 Z" fill="#000000" fill-rule="evenodd" fill-opacity="1"></path><path clip-path="url(#clip900)" d="M1988.29 759.73 Q1982.46 759.73 1979.09 762.849 Q1975.77 765.968 1975.77 771.437 Q1975.77 776.906 1979.09 780.025 Q1982.46 783.144 1988.29 783.144 Q1994.12 783.144 1997.48 780.025 Q2000.85 776.865 2000.85 771.437 Q2000.85 765.968 1997.48 762.849 Q1994.16 759.73 1988.29 759.73 M1980.11 756.246 Q1974.84 754.95 1971.88 751.344 Q1968.97 747.739 1968.97 742.554 Q1968.97 735.303 1974.11 731.09 Q1979.3 726.877 1988.29 726.877 Q1997.32 726.877 2002.47 731.09 Q2007.61 735.303 2007.61 742.554 Q2007.61 747.739 2004.65 751.344 Q2001.74 754.95 1996.51 756.246 Q2002.43 757.623 2005.71 761.634 Q2009.03 765.644 2009.03 771.437 Q2009.03 780.227 2003.64 784.926 Q1998.29 789.626 1988.29 789.626 Q1978.28 789.626 1972.89 784.926 Q1967.55 780.227 1967.55 771.437 Q1967.55 765.644 1970.87 761.634 Q1974.19 757.623 1980.11 756.246 M1977.11 743.324 Q1977.11 748.023 1980.02 750.656 Q1982.98 753.289 1988.29 753.289 Q1993.55 753.289 1996.51 750.656 Q1999.51 748.023 1999.51 743.324 Q1999.51 738.625 1996.51 735.992 Q1993.55 733.358 1988.29 733.358 Q1982.98 733.358 1980.02 735.992 Q1977.11 738.625 1977.11 743.324 Z" fill="#000000" fill-rule="evenodd" fill-opacity="1"></path><path clip-path="url(#clip900)" d="M1971.32 307.46 L1971.32 300.007 Q1974.39 301.465 1977.55 302.235 Q1980.71 303.004 1983.75 303.004 Q1991.85 303.004 1996.11 297.576 Q2000.4 292.107 2001.01 281.008 Q1998.66 284.492 1995.05 286.355 Q1991.45 288.219 1987.07 288.219 Q1978 288.219 1972.69 282.75 Q1967.43 277.241 1967.43 267.721 Q1967.43 258.404 1972.94 252.773 Q1978.44 247.142 1987.6 247.142 Q1998.09 247.142 2003.6 255.204 Q2009.15 263.225 2009.15 278.537 Q2009.15 292.837 2002.35 301.384 Q1995.58 309.891 1984.12 309.891 Q1981.04 309.891 1977.88 309.283 Q1974.72 308.676 1971.32 307.46 M1987.6 281.818 Q1993.11 281.818 1996.31 278.051 Q1999.55 274.283 1999.55 267.721 Q1999.55 261.199 1996.31 257.432 Q1993.11 253.624 1987.6 253.624 Q1982.09 253.624 1978.85 257.432 Q1975.65 261.199 1975.65 267.721 Q1975.65 274.283 1978.85 278.051 Q1982.09 281.818 1987.6 281.818 Z" fill="#000000" fill-rule="evenodd" fill-opacity="1"></path></svg>