<svg xmlns="http://www.w3.org/2000/svg" xmlns:xlink="http://www.w3.org/1999/xlink" width="600" height="400" viewBox="0 0 2400 1600">
<defs>
  <clipPath id="clip610">
    <rect x="0" y="0" width="2400" height="1600"></rect>
  </clipPath>
</defs>
<path clip-path="url(#clip610)" d="
M0 1600 L2400 1600 L2400 0 L0 0  Z
  " fill="#ffffff" fill-rule="evenodd" fill-opacity="1"></path>
<defs>
  <clipPath id="clip611">
    <rect x="480" y="0" width="1681" height="1600"></rect>
  </clipPath>
</defs>
<path clip-path="url(#clip610)" d="
M234.125 1423.18 L2352.76 1423.18 L2352.76 47.2441 L234.125 47.2441  Z
  " fill="#ffffff" fill-rule="evenodd" fill-opacity="1"></path>
<defs>
  <clipPath id="clip612">
    <rect x="234" y="47" width="2120" height="1377"></rect>
  </clipPath>
</defs>
<polyline clip-path="url(#clip612)" style="stroke:#000000; stroke-linecap:butt; stroke-linejoin:round; stroke-width:2; stroke-opacity:0.1; fill:none" points="
  243.049,1423.18 243.049,47.2441 
  "></polyline>
<polyline clip-path="url(#clip612)" style="stroke:#000000; stroke-linecap:butt; stroke-linejoin:round; stroke-width:2; stroke-opacity:0.1; fill:none" points="
  666.024,1423.18 666.024,47.2441 
  "></polyline>
<polyline clip-path="url(#clip612)" style="stroke:#000000; stroke-linecap:butt; stroke-linejoin:round; stroke-width:2; stroke-opacity:0.1; fill:none" points="
  1089,1423.18 1089,47.2441 
  "></polyline>
<polyline clip-path="url(#clip612)" style="stroke:#000000; stroke-linecap:butt; stroke-linejoin:round; stroke-width:2; stroke-opacity:0.1; fill:none" points="
  1511.97,1423.18 1511.97,47.2441 
  "></polyline>
<polyline clip-path="url(#clip612)" style="stroke:#000000; stroke-linecap:butt; stroke-linejoin:round; stroke-width:2; stroke-opacity:0.1; fill:none" points="
  1934.95,1423.18 1934.95,47.2441 
  "></polyline>
<polyline clip-path="url(#clip610)" style="stroke:#000000; stroke-linecap:butt; stroke-linejoin:round; stroke-width:4; stroke-opacity:1; fill:none" points="
  234.125,1423.18 2352.76,1423.18 
  "></polyline>
<polyline clip-path="url(#clip610)" style="stroke:#000000; stroke-linecap:butt; stroke-linejoin:round; stroke-width:4; stroke-opacity:1; fill:none" points="
  243.049,1423.18 243.049,1404.28 
  "></polyline>
<polyline clip-path="url(#clip610)" style="stroke:#000000; stroke-linecap:butt; stroke-linejoin:round; stroke-width:4; stroke-opacity:1; fill:none" points="
  666.024,1423.18 666.024,1404.28 
  "></polyline>
<polyline clip-path="url(#clip610)" style="stroke:#000000; stroke-linecap:butt; stroke-linejoin:round; stroke-width:4; stroke-opacity:1; fill:none" points="
  1089,1423.18 1089,1404.28 
  "></polyline>
<polyline clip-path="url(#clip610)" style="stroke:#000000; stroke-linecap:butt; stroke-linejoin:round; stroke-width:4; stroke-opacity:1; fill:none" points="
  1511.97,1423.18 1511.97,1404.28 
  "></polyline>
<polyline clip-path="url(#clip610)" style="stroke:#000000; stroke-linecap:butt; stroke-linejoin:round; stroke-width:4; stroke-opacity:1; fill:none" points="
  1934.95,1423.18 1934.95,1404.28 
  "></polyline>
<path clip-path="url(#clip610)" d="M243.049 1454.1 Q239.438 1454.1 237.61 1457.66 Q235.804 1461.2 235.804 1468.33 Q235.804 1475.44 237.61 1479.01 Q239.438 1482.55 243.049 1482.55 Q246.684 1482.55 248.489 1479.01 Q250.318 1475.44 250.318 1468.33 Q250.318 1461.2 248.489 1457.66 Q246.684 1454.1 243.049 1454.1 M243.049 1450.39 Q248.86 1450.39 251.915 1455 Q254.994 1459.58 254.994 1468.33 Q254.994 1477.06 251.915 1481.67 Q248.86 1486.25 243.049 1486.25 Q237.239 1486.25 234.161 1481.67 Q231.105 1477.06 231.105 1468.33 Q231.105 1459.58 234.161 1455 Q237.239 1450.39 243.049 1450.39 Z" fill="#000000" fill-rule="evenodd" fill-opacity="1"></path><path clip-path="url(#clip610)" d="M660.677 1481.64 L676.997 1481.64 L676.997 1485.58 L655.052 1485.58 L655.052 1481.64 Q657.714 1478.89 662.298 1474.26 Q666.904 1469.61 668.085 1468.27 Q670.33 1465.74 671.21 1464.01 Q672.112 1462.25 672.112 1460.56 Q672.112 1457.8 670.168 1456.07 Q668.247 1454.33 665.145 1454.33 Q662.946 1454.33 660.492 1455.09 Q658.061 1455.86 655.284 1457.41 L655.284 1452.69 Q658.108 1451.55 660.561 1450.97 Q663.015 1450.39 665.052 1450.39 Q670.422 1450.39 673.617 1453.08 Q676.811 1455.77 676.811 1460.26 Q676.811 1462.39 676.001 1464.31 Q675.214 1466.2 673.108 1468.8 Q672.529 1469.47 669.427 1472.69 Q666.325 1475.88 660.677 1481.64 Z" fill="#000000" fill-rule="evenodd" fill-opacity="1"></path><path clip-path="url(#clip610)" d="M1092.01 1455.09 L1080.2 1473.54 L1092.01 1473.54 L1092.01 1455.09 M1090.78 1451.02 L1096.66 1451.02 L1096.66 1473.54 L1101.59 1473.54 L1101.59 1477.43 L1096.66 1477.43 L1096.66 1485.58 L1092.01 1485.58 L1092.01 1477.43 L1076.41 1477.43 L1076.41 1472.92 L1090.78 1451.02 Z" fill="#000000" fill-rule="evenodd" fill-opacity="1"></path><path clip-path="url(#clip610)" d="M1512.38 1466.44 Q1509.23 1466.44 1507.38 1468.59 Q1505.55 1470.74 1505.55 1474.49 Q1505.55 1478.22 1507.38 1480.39 Q1509.23 1482.55 1512.38 1482.55 Q1515.53 1482.55 1517.36 1480.39 Q1519.21 1478.22 1519.21 1474.49 Q1519.21 1470.74 1517.36 1468.59 Q1515.53 1466.44 1512.38 1466.44 M1521.66 1451.78 L1521.66 1456.04 Q1519.9 1455.21 1518.1 1454.77 Q1516.31 1454.33 1514.56 1454.33 Q1509.93 1454.33 1507.47 1457.45 Q1505.04 1460.58 1504.69 1466.9 Q1506.06 1464.89 1508.12 1463.82 Q1510.18 1462.73 1512.66 1462.73 Q1517.87 1462.73 1520.87 1465.9 Q1523.91 1469.05 1523.91 1474.49 Q1523.91 1479.82 1520.76 1483.03 Q1517.61 1486.25 1512.38 1486.25 Q1506.38 1486.25 1503.21 1481.67 Q1500.04 1477.06 1500.04 1468.33 Q1500.04 1460.14 1503.93 1455.28 Q1507.82 1450.39 1514.37 1450.39 Q1516.13 1450.39 1517.91 1450.74 Q1519.72 1451.09 1521.66 1451.78 Z" fill="#000000" fill-rule="evenodd" fill-opacity="1"></path><path clip-path="url(#clip610)" d="M1934.95 1469.17 Q1931.62 1469.17 1929.69 1470.95 Q1927.8 1472.73 1927.8 1475.86 Q1927.8 1478.98 1929.69 1480.77 Q1931.62 1482.55 1934.95 1482.55 Q1938.28 1482.55 1940.2 1480.77 Q1942.12 1478.96 1942.12 1475.86 Q1942.12 1472.73 1940.2 1470.95 Q1938.31 1469.17 1934.95 1469.17 M1930.27 1467.18 Q1927.26 1466.44 1925.57 1464.38 Q1923.91 1462.32 1923.91 1459.35 Q1923.91 1455.21 1926.85 1452.8 Q1929.81 1450.39 1934.95 1450.39 Q1940.11 1450.39 1943.05 1452.8 Q1945.99 1455.21 1945.99 1459.35 Q1945.99 1462.32 1944.3 1464.38 Q1942.63 1466.44 1939.65 1467.18 Q1943.03 1467.96 1944.9 1470.26 Q1946.8 1472.55 1946.8 1475.86 Q1946.8 1480.88 1943.72 1483.57 Q1940.67 1486.25 1934.95 1486.25 Q1929.23 1486.25 1926.15 1483.57 Q1923.1 1480.88 1923.1 1475.86 Q1923.1 1472.55 1925 1470.26 Q1926.89 1467.96 1930.27 1467.18 M1928.56 1459.79 Q1928.56 1462.48 1930.23 1463.98 Q1931.92 1465.49 1934.95 1465.49 Q1937.96 1465.49 1939.65 1463.98 Q1941.36 1462.48 1941.36 1459.79 Q1941.36 1457.11 1939.65 1455.6 Q1937.96 1454.1 1934.95 1454.1 Q1931.92 1454.1 1930.23 1455.6 Q1928.56 1457.11 1928.56 1459.79 Z" fill="#000000" fill-rule="evenodd" fill-opacity="1"></path><path clip-path="url(#clip610)" d="M1133.93 1520.52 L1161.24 1520.52 L1161.24 1525.93 L1140.36 1525.93 L1140.36 1539.94 L1159.2 1539.94 L1159.2 1545.35 L1140.36 1545.35 L1140.36 1568.04 L1133.93 1568.04 L1133.93 1520.52 Z" fill="#000000" fill-rule="evenodd" fill-opacity="1"></path><path clip-path="url(#clip610)" d="M1181.39 1550.12 Q1174.29 1550.12 1171.55 1551.75 Q1168.82 1553.37 1168.82 1557.29 Q1168.82 1560.4 1170.85 1562.25 Q1172.92 1564.07 1176.45 1564.07 Q1181.32 1564.07 1184.25 1560.63 Q1187.21 1557.16 1187.21 1551.43 L1187.21 1550.12 L1181.39 1550.12 M1193.07 1547.71 L1193.07 1568.04 L1187.21 1568.04 L1187.21 1562.63 Q1185.21 1565.88 1182.22 1567.44 Q1179.22 1568.97 1174.9 1568.97 Q1169.42 1568.97 1166.17 1565.91 Q1162.96 1562.82 1162.96 1557.67 Q1162.96 1551.65 1166.97 1548.6 Q1171.01 1545.54 1179 1545.54 L1187.21 1545.54 L1187.21 1544.97 Q1187.21 1540.93 1184.54 1538.73 Q1181.9 1536.5 1177.09 1536.5 Q1174.04 1536.5 1171.14 1537.23 Q1168.24 1537.97 1165.57 1539.43 L1165.57 1534.02 Q1168.78 1532.78 1171.81 1532.17 Q1174.83 1531.54 1177.7 1531.54 Q1185.43 1531.54 1189.25 1535.55 Q1193.07 1539.56 1193.07 1547.71 Z" fill="#000000" fill-rule="evenodd" fill-opacity="1"></path><path clip-path="url(#clip610)" d="M1225.79 1537.87 Q1224.8 1537.3 1223.62 1537.04 Q1222.48 1536.76 1221.08 1536.76 Q1216.11 1536.76 1213.44 1540 Q1210.8 1543.22 1210.8 1549.27 L1210.8 1568.04 L1204.91 1568.04 L1204.91 1532.4 L1210.8 1532.4 L1210.8 1537.93 Q1212.64 1534.69 1215.6 1533.13 Q1218.56 1531.54 1222.8 1531.54 Q1223.4 1531.54 1224.13 1531.63 Q1224.87 1531.7 1225.76 1531.85 L1225.79 1537.87 Z" fill="#000000" fill-rule="evenodd" fill-opacity="1"></path><path clip-path="url(#clip610)" d="M1258.54 1539.24 Q1260.74 1535.29 1263.79 1533.41 Q1266.85 1531.54 1270.99 1531.54 Q1276.56 1531.54 1279.58 1535.45 Q1282.6 1539.33 1282.6 1546.53 L1282.6 1568.04 L1276.71 1568.04 L1276.71 1546.72 Q1276.71 1541.59 1274.9 1539.11 Q1273.09 1536.63 1269.36 1536.63 Q1264.81 1536.63 1262.17 1539.65 Q1259.53 1542.68 1259.53 1547.9 L1259.53 1568.04 L1253.64 1568.04 L1253.64 1546.72 Q1253.64 1541.56 1251.82 1539.11 Q1250.01 1536.63 1246.22 1536.63 Q1241.74 1536.63 1239.09 1539.68 Q1236.45 1542.71 1236.45 1547.9 L1236.45 1568.04 L1230.56 1568.04 L1230.56 1532.4 L1236.45 1532.4 L1236.45 1537.93 Q1238.46 1534.66 1241.26 1533.1 Q1244.06 1531.54 1247.91 1531.54 Q1251.79 1531.54 1254.5 1533.51 Q1257.24 1535.48 1258.54 1539.24 Z" fill="#000000" fill-rule="evenodd" fill-opacity="1"></path><path clip-path="url(#clip610)" d="M1331.14 1526.86 L1322.42 1550.51 L1339.89 1550.51 L1331.14 1526.86 M1327.51 1520.52 L1334.8 1520.52 L1352.91 1568.04 L1346.23 1568.04 L1341.9 1555.85 L1320.48 1555.85 L1316.15 1568.04 L1309.37 1568.04 L1327.51 1520.52 Z" fill="#000000" fill-rule="evenodd" fill-opacity="1"></path><path clip-path="url(#clip610)" d="M1380.25 1537.87 Q1379.27 1537.3 1378.09 1537.04 Q1376.94 1536.76 1375.54 1536.76 Q1370.58 1536.76 1367.9 1540 Q1365.26 1543.22 1365.26 1549.27 L1365.26 1568.04 L1359.37 1568.04 L1359.37 1532.4 L1365.26 1532.4 L1365.26 1537.93 Q1367.11 1534.69 1370.07 1533.13 Q1373.03 1531.54 1377.26 1531.54 Q1377.87 1531.54 1378.6 1531.63 Q1379.33 1531.7 1380.22 1531.85 L1380.25 1537.87 Z" fill="#000000" fill-rule="evenodd" fill-opacity="1"></path><path clip-path="url(#clip610)" d="M1415.46 1548.76 L1415.46 1551.62 L1388.53 1551.62 Q1388.91 1557.67 1392.16 1560.85 Q1395.44 1564 1401.26 1564 Q1404.63 1564 1407.78 1563.17 Q1410.97 1562.35 1414.09 1560.69 L1414.09 1566.23 Q1410.94 1567.57 1407.63 1568.27 Q1404.32 1568.97 1400.91 1568.97 Q1392.38 1568.97 1387.38 1564 Q1382.42 1559.04 1382.42 1550.57 Q1382.42 1541.82 1387.13 1536.69 Q1391.87 1531.54 1399.89 1531.54 Q1407.08 1531.54 1411.25 1536.18 Q1415.46 1540.8 1415.46 1548.76 M1409.6 1547.04 Q1409.54 1542.23 1406.89 1539.37 Q1404.28 1536.5 1399.95 1536.5 Q1395.05 1536.5 1392.09 1539.27 Q1389.16 1542.04 1388.72 1547.07 L1409.6 1547.04 Z" fill="#000000" fill-rule="evenodd" fill-opacity="1"></path><path clip-path="url(#clip610)" d="M1441.27 1550.12 Q1434.17 1550.12 1431.43 1551.75 Q1428.7 1553.37 1428.7 1557.29 Q1428.7 1560.4 1430.73 1562.25 Q1432.8 1564.07 1436.33 1564.07 Q1441.2 1564.07 1444.13 1560.63 Q1447.09 1557.16 1447.09 1551.43 L1447.09 1550.12 L1441.27 1550.12 M1452.95 1547.71 L1452.95 1568.04 L1447.09 1568.04 L1447.09 1562.63 Q1445.09 1565.88 1442.1 1567.44 Q1439.1 1568.97 1434.78 1568.97 Q1429.3 1568.97 1426.05 1565.91 Q1422.84 1562.82 1422.84 1557.67 Q1422.84 1551.65 1426.85 1548.6 Q1430.89 1545.54 1438.88 1545.54 L1447.09 1545.54 L1447.09 1544.97 Q1447.09 1540.93 1444.42 1538.73 Q1441.78 1536.5 1436.97 1536.5 Q1433.92 1536.5 1431.02 1537.23 Q1428.12 1537.97 1425.45 1539.43 L1425.45 1534.02 Q1428.66 1532.78 1431.69 1532.17 Q1434.71 1531.54 1437.58 1531.54 Q1445.31 1531.54 1449.13 1535.55 Q1452.95 1539.56 1452.95 1547.71 Z" fill="#000000" fill-rule="evenodd" fill-opacity="1"></path><polyline clip-path="url(#clip612)" style="stroke:#000000; stroke-linecap:butt; stroke-linejoin:round; stroke-width:2; stroke-opacity:0.1; fill:none" points="
  234.125,1239.56 2352.76,1239.56 
  "></polyline>
<polyline clip-path="url(#clip612)" style="stroke:#000000; stroke-linecap:butt; stroke-linejoin:round; stroke-width:2; stroke-opacity:0.1; fill:none" points="
  234.125,991.467 2352.76,991.467 
  "></polyline>
<polyline clip-path="url(#clip612)" style="stroke:#000000; stroke-linecap:butt; stroke-linejoin:round; stroke-width:2; stroke-opacity:0.1; fill:none" points="
  234.125,743.377 2352.76,743.377 
  "></polyline>
<polyline clip-path="url(#clip612)" style="stroke:#000000; stroke-linecap:butt; stroke-linejoin:round; stroke-width:2; stroke-opacity:0.1; fill:none" points="
  234.125,495.287 2352.76,495.287 
  "></polyline>
<polyline clip-path="url(#clip612)" style="stroke:#000000; stroke-linecap:butt; stroke-linejoin:round; stroke-width:2; stroke-opacity:0.1; fill:none" points="
  234.125,247.197 2352.76,247.197 
  "></polyline>
<polyline clip-path="url(#clip610)" style="stroke:#000000; stroke-linecap:butt; stroke-linejoin:round; stroke-width:4; stroke-opacity:1; fill:none" points="
  234.125,1423.18 234.125,47.2441 
  "></polyline>
<polyline clip-path="url(#clip610)" style="stroke:#000000; stroke-linecap:butt; stroke-linejoin:round; stroke-width:4; stroke-opacity:1; fill:none" points="
  234.125,1239.56 253.023,1239.56 
  "></polyline>
<polyline clip-path="url(#clip610)" style="stroke:#000000; stroke-linecap:butt; stroke-linejoin:round; stroke-width:4; stroke-opacity:1; fill:none" points="
  234.125,991.467 253.023,991.467 
  "></polyline>
<polyline clip-path="url(#clip610)" style="stroke:#000000; stroke-linecap:butt; stroke-linejoin:round; stroke-width:4; stroke-opacity:1; fill:none" points="
  234.125,743.377 253.023,743.377 
  "></polyline>
<polyline clip-path="url(#clip610)" style="stroke:#000000; stroke-linecap:butt; stroke-linejoin:round; stroke-width:4; stroke-opacity:1; fill:none" points="
  234.125,495.287 253.023,495.287 
  "></polyline>
<polyline clip-path="url(#clip610)" style="stroke:#000000; stroke-linecap:butt; stroke-linejoin:round; stroke-width:4; stroke-opacity:1; fill:none" points="
  234.125,247.197 253.023,247.197 
  "></polyline>
<path clip-path="url(#clip610)" d="M186.181 1225.36 Q182.57 1225.36 180.741 1228.92 Q178.936 1232.46 178.936 1239.59 Q178.936 1246.7 180.741 1250.26 Q182.57 1253.8 186.181 1253.8 Q189.815 1253.8 191.621 1250.26 Q193.45 1246.7 193.45 1239.59 Q193.45 1232.46 191.621 1228.92 Q189.815 1225.36 186.181 1225.36 M186.181 1221.65 Q191.991 1221.65 195.047 1226.26 Q198.125 1230.84 198.125 1239.59 Q198.125 1248.32 195.047 1252.93 Q191.991 1257.51 186.181 1257.51 Q180.371 1257.51 177.292 1252.93 Q174.237 1248.32 174.237 1239.59 Q174.237 1230.84 177.292 1226.26 Q180.371 1221.65 186.181 1221.65 Z" fill="#000000" fill-rule="evenodd" fill-opacity="1"></path><path clip-path="url(#clip610)" d="M146.066 974.187 L164.422 974.187 L164.422 978.122 L150.348 978.122 L150.348 986.595 Q151.366 986.247 152.385 986.085 Q153.403 985.9 154.422 985.9 Q160.209 985.9 163.589 989.071 Q166.968 992.243 166.968 997.659 Q166.968 1003.24 163.496 1006.34 Q160.024 1009.42 153.704 1009.42 Q151.528 1009.42 149.26 1009.05 Q147.015 1008.68 144.607 1007.94 L144.607 1003.24 Q146.691 1004.37 148.913 1004.93 Q151.135 1005.48 153.612 1005.48 Q157.616 1005.48 159.954 1003.38 Q162.292 1001.27 162.292 997.659 Q162.292 994.048 159.954 991.942 Q157.616 989.835 153.612 989.835 Q151.737 989.835 149.862 990.252 Q148.01 990.669 146.066 991.548 L146.066 974.187 Z" fill="#000000" fill-rule="evenodd" fill-opacity="1"></path><path clip-path="url(#clip610)" d="M186.181 977.266 Q182.57 977.266 180.741 980.831 Q178.936 984.372 178.936 991.502 Q178.936 998.608 180.741 1002.17 Q182.57 1005.71 186.181 1005.71 Q189.815 1005.71 191.621 1002.17 Q193.45 998.608 193.45 991.502 Q193.45 984.372 191.621 980.831 Q189.815 977.266 186.181 977.266 M186.181 973.562 Q191.991 973.562 195.047 978.169 Q198.125 982.752 198.125 991.502 Q198.125 1000.23 195.047 1004.84 Q191.991 1009.42 186.181 1009.42 Q180.371 1009.42 177.292 1004.84 Q174.237 1000.23 174.237 991.502 Q174.237 982.752 177.292 978.169 Q180.371 973.562 186.181 973.562 Z" fill="#000000" fill-rule="evenodd" fill-opacity="1"></path><path clip-path="url(#clip610)" d="M116.668 756.722 L124.306 756.722 L124.306 730.356 L115.996 732.023 L115.996 727.764 L124.26 726.097 L128.936 726.097 L128.936 756.722 L136.575 756.722 L136.575 760.657 L116.668 760.657 L116.668 756.722 Z" fill="#000000" fill-rule="evenodd" fill-opacity="1"></path><path clip-path="url(#clip610)" d="M156.019 729.176 Q152.408 729.176 150.579 732.741 Q148.774 736.282 148.774 743.412 Q148.774 750.518 150.579 754.083 Q152.408 757.625 156.019 757.625 Q159.653 757.625 161.459 754.083 Q163.288 750.518 163.288 743.412 Q163.288 736.282 161.459 732.741 Q159.653 729.176 156.019 729.176 M156.019 725.472 Q161.829 725.472 164.885 730.079 Q167.964 734.662 167.964 743.412 Q167.964 752.139 164.885 756.745 Q161.829 761.328 156.019 761.328 Q150.209 761.328 147.13 756.745 Q144.075 752.139 144.075 743.412 Q144.075 734.662 147.13 730.079 Q150.209 725.472 156.019 725.472 Z" fill="#000000" fill-rule="evenodd" fill-opacity="1"></path><path clip-path="url(#clip610)" d="M186.181 729.176 Q182.57 729.176 180.741 732.741 Q178.936 736.282 178.936 743.412 Q178.936 750.518 180.741 754.083 Q182.57 757.625 186.181 757.625 Q189.815 757.625 191.621 754.083 Q193.45 750.518 193.45 743.412 Q193.45 736.282 191.621 732.741 Q189.815 729.176 186.181 729.176 M186.181 725.472 Q191.991 725.472 195.047 730.079 Q198.125 734.662 198.125 743.412 Q198.125 752.139 195.047 756.745 Q191.991 761.328 186.181 761.328 Q180.371 761.328 177.292 756.745 Q174.237 752.139 174.237 743.412 Q174.237 734.662 177.292 730.079 Q180.371 725.472 186.181 725.472 Z" fill="#000000" fill-rule="evenodd" fill-opacity="1"></path><path clip-path="url(#clip610)" d="M116.668 508.632 L124.306 508.632 L124.306 482.266 L115.996 483.933 L115.996 479.674 L124.26 478.007 L128.936 478.007 L128.936 508.632 L136.575 508.632 L136.575 512.567 L116.668 512.567 L116.668 508.632 Z" fill="#000000" fill-rule="evenodd" fill-opacity="1"></path><path clip-path="url(#clip610)" d="M146.066 478.007 L164.422 478.007 L164.422 481.942 L150.348 481.942 L150.348 490.414 Q151.366 490.067 152.385 489.905 Q153.403 489.72 154.422 489.72 Q160.209 489.72 163.589 492.891 Q166.968 496.062 166.968 501.479 Q166.968 507.058 163.496 510.16 Q160.024 513.238 153.704 513.238 Q151.528 513.238 149.26 512.868 Q147.015 512.498 144.607 511.757 L144.607 507.058 Q146.691 508.192 148.913 508.748 Q151.135 509.303 153.612 509.303 Q157.616 509.303 159.954 507.197 Q162.292 505.09 162.292 501.479 Q162.292 497.868 159.954 495.762 Q157.616 493.655 153.612 493.655 Q151.737 493.655 149.862 494.072 Q148.01 494.488 146.066 495.368 L146.066 478.007 Z" fill="#000000" fill-rule="evenodd" fill-opacity="1"></path><path clip-path="url(#clip610)" d="M186.181 481.086 Q182.57 481.086 180.741 484.65 Q178.936 488.192 178.936 495.322 Q178.936 502.428 180.741 505.993 Q182.57 509.535 186.181 509.535 Q189.815 509.535 191.621 505.993 Q193.45 502.428 193.45 495.322 Q193.45 488.192 191.621 484.65 Q189.815 481.086 186.181 481.086 M186.181 477.382 Q191.991 477.382 195.047 481.988 Q198.125 486.572 198.125 495.322 Q198.125 504.049 195.047 508.655 Q191.991 513.238 186.181 513.238 Q180.371 513.238 177.292 508.655 Q174.237 504.049 174.237 495.322 Q174.237 486.572 177.292 481.988 Q180.371 477.382 186.181 477.382 Z" fill="#000000" fill-rule="evenodd" fill-opacity="1"></path><path clip-path="url(#clip610)" d="M119.885 260.542 L136.204 260.542 L136.204 264.477 L114.26 264.477 L114.26 260.542 Q116.922 257.787 121.505 253.157 Q126.112 248.505 127.292 247.162 Q129.538 244.639 130.417 242.903 Q131.32 241.144 131.32 239.454 Q131.32 236.699 129.376 234.963 Q127.455 233.227 124.353 233.227 Q122.154 233.227 119.7 233.991 Q117.269 234.755 114.492 236.306 L114.492 231.584 Q117.316 230.449 119.769 229.871 Q122.223 229.292 124.26 229.292 Q129.63 229.292 132.825 231.977 Q136.019 234.662 136.019 239.153 Q136.019 241.283 135.209 243.204 Q134.422 245.102 132.316 247.695 Q131.737 248.366 128.635 251.583 Q125.533 254.778 119.885 260.542 Z" fill="#000000" fill-rule="evenodd" fill-opacity="1"></path><path clip-path="url(#clip610)" d="M156.019 232.996 Q152.408 232.996 150.579 236.56 Q148.774 240.102 148.774 247.232 Q148.774 254.338 150.579 257.903 Q152.408 261.444 156.019 261.444 Q159.653 261.444 161.459 257.903 Q163.288 254.338 163.288 247.232 Q163.288 240.102 161.459 236.56 Q159.653 232.996 156.019 232.996 M156.019 229.292 Q161.829 229.292 164.885 233.898 Q167.964 238.482 167.964 247.232 Q167.964 255.958 164.885 260.565 Q161.829 265.148 156.019 265.148 Q150.209 265.148 147.13 260.565 Q144.075 255.958 144.075 247.232 Q144.075 238.482 147.13 233.898 Q150.209 229.292 156.019 229.292 Z" fill="#000000" fill-rule="evenodd" fill-opacity="1"></path><path clip-path="url(#clip610)" d="M186.181 232.996 Q182.57 232.996 180.741 236.56 Q178.936 240.102 178.936 247.232 Q178.936 254.338 180.741 257.903 Q182.57 261.444 186.181 261.444 Q189.815 261.444 191.621 257.903 Q193.45 254.338 193.45 247.232 Q193.45 240.102 191.621 236.56 Q189.815 232.996 186.181 232.996 M186.181 229.292 Q191.991 229.292 195.047 233.898 Q198.125 238.482 198.125 247.232 Q198.125 255.958 195.047 260.565 Q191.991 265.148 186.181 265.148 Q180.371 265.148 177.292 260.565 Q174.237 255.958 174.237 247.232 Q174.237 238.482 177.292 233.898 Q180.371 229.292 186.181 229.292 Z" fill="#000000" fill-rule="evenodd" fill-opacity="1"></path><path clip-path="url(#clip610)" d="M21.7677 893.623 L39.6235 893.623 L39.6235 885.538 Q39.6235 881.05 37.3 878.6 Q34.9765 876.149 30.6797 876.149 Q26.4147 876.149 24.0912 878.6 Q21.7677 881.05 21.7677 885.538 L21.7677 893.623 M16.4842 900.052 L16.4842 885.538 Q16.4842 877.549 20.1126 873.475 Q23.7092 869.369 30.6797 869.369 Q37.7138 869.369 41.3104 873.475 Q44.907 877.549 44.907 885.538 L44.907 893.623 L64.0042 893.623 L64.0042 900.052 L16.4842 900.052 Z" fill="#000000" fill-rule="evenodd" fill-opacity="1"></path><path clip-path="url(#clip610)" d="M33.8307 841.487 Q33.2578 842.474 33.0032 843.652 Q32.7167 844.798 32.7167 846.198 Q32.7167 851.163 35.9632 853.837 Q39.1779 856.479 45.2253 856.479 L64.0042 856.479 L64.0042 862.367 L28.3562 862.367 L28.3562 856.479 L33.8944 856.479 Q30.6479 854.633 29.0883 851.673 Q27.4968 848.713 27.4968 844.479 Q27.4968 843.875 27.5923 843.143 Q27.656 842.41 27.8151 841.519 L33.8307 841.487 Z" fill="#000000" fill-rule="evenodd" fill-opacity="1"></path><path clip-path="url(#clip610)" d="M32.4621 822.963 Q32.4621 827.674 36.1542 830.411 Q39.8145 833.148 46.212 833.148 Q52.6095 833.148 56.3017 830.443 Q59.9619 827.706 59.9619 822.963 Q59.9619 818.284 56.2698 815.547 Q52.5777 812.81 46.212 812.81 Q39.8781 812.81 36.186 815.547 Q32.4621 818.284 32.4621 822.963 M27.4968 822.963 Q27.4968 815.324 32.4621 810.964 Q37.4273 806.603 46.212 806.603 Q54.9649 806.603 59.9619 810.964 Q64.9272 815.324 64.9272 822.963 Q64.9272 830.634 59.9619 834.994 Q54.9649 839.323 46.212 839.323 Q37.4273 839.323 32.4621 834.994 Q27.4968 830.634 27.4968 822.963 Z" fill="#000000" fill-rule="evenodd" fill-opacity="1"></path><path clip-path="url(#clip610)" d="M14.479 778.849 L19.3487 778.849 L19.3487 784.451 Q19.3487 787.602 20.6219 788.843 Q21.895 790.053 25.2052 790.053 L28.3562 790.053 L28.3562 780.408 L32.9077 780.408 L32.9077 790.053 L64.0042 790.053 L64.0042 795.941 L32.9077 795.941 L32.9077 801.543 L28.3562 801.543 L28.3562 795.941 L25.8736 795.941 Q19.9216 795.941 17.2162 793.172 Q14.479 790.403 14.479 784.387 L14.479 778.849 Z" fill="#000000" fill-rule="evenodd" fill-opacity="1"></path><path clip-path="url(#clip610)" d="M28.3562 773.947 L28.3562 768.091 L64.0042 768.091 L64.0042 773.947 L28.3562 773.947 M14.479 773.947 L14.479 768.091 L21.895 768.091 L21.895 773.947 L14.479 773.947 Z" fill="#000000" fill-rule="evenodd" fill-opacity="1"></path><path clip-path="url(#clip610)" d="M18.2347 750.044 L28.3562 750.044 L28.3562 737.981 L32.9077 737.981 L32.9077 750.044 L52.2594 750.044 Q56.6199 750.044 57.8613 748.866 Q59.1026 747.657 59.1026 743.997 L59.1026 737.981 L64.0042 737.981 L64.0042 743.997 Q64.0042 750.776 61.4897 753.354 Q58.9434 755.932 52.2594 755.932 L32.9077 755.932 L32.9077 760.229 L28.3562 760.229 L28.3562 755.932 L18.2347 755.932 L18.2347 750.044 Z" fill="#000000" fill-rule="evenodd" fill-opacity="1"></path><path clip-path="url(#clip610)" d="M16.4842 719.871 L16.4842 714.46 L70.0516 731.011 L70.0516 736.421 L16.4842 719.871 Z" fill="#000000" fill-rule="evenodd" fill-opacity="1"></path><path clip-path="url(#clip610)" d="M22.818 692.18 L46.4666 700.901 L46.4666 683.427 L22.818 692.18 M16.4842 695.808 L16.4842 688.52 L64.0042 670.409 L64.0042 677.093 L51.8138 681.422 L51.8138 702.842 L64.0042 707.171 L64.0042 713.951 L16.4842 695.808 Z" fill="#000000" fill-rule="evenodd" fill-opacity="1"></path><path clip-path="url(#clip610)" d="M33.8307 643.068 Q33.2578 644.055 33.0032 645.233 Q32.7167 646.379 32.7167 647.779 Q32.7167 652.744 35.9632 655.418 Q39.1779 658.06 45.2253 658.06 L64.0042 658.06 L64.0042 663.948 L28.3562 663.948 L28.3562 658.06 L33.8944 658.06 Q30.6479 656.214 29.0883 653.253 Q27.4968 650.293 27.4968 646.06 Q27.4968 645.456 27.5923 644.723 Q27.656 643.991 27.8151 643.1 L33.8307 643.068 Z" fill="#000000" fill-rule="evenodd" fill-opacity="1"></path><path clip-path="url(#clip610)" d="M44.7161 607.866 L47.5806 607.866 L47.5806 634.793 Q53.6281 634.411 56.8109 631.164 Q59.9619 627.886 59.9619 622.062 Q59.9619 618.688 59.1344 615.537 Q58.3069 612.354 56.6518 609.235 L62.1899 609.235 Q63.5267 612.386 64.227 615.696 Q64.9272 619.006 64.9272 622.412 Q64.9272 630.942 59.9619 635.939 Q54.9967 640.904 46.5303 640.904 Q37.7774 640.904 32.6531 636.193 Q27.4968 631.451 27.4968 623.43 Q27.4968 616.237 32.1438 612.067 Q36.7589 607.866 44.7161 607.866 M42.9973 613.722 Q38.1912 613.786 35.3266 616.428 Q32.4621 619.038 32.4621 623.367 Q32.4621 628.268 35.2312 631.228 Q38.0002 634.156 43.0292 634.602 L42.9973 613.722 Z" fill="#000000" fill-rule="evenodd" fill-opacity="1"></path><path clip-path="url(#clip610)" d="M46.0847 582.053 Q46.0847 589.151 47.7079 591.888 Q49.3312 594.625 53.2461 594.625 Q56.3653 594.625 58.2114 592.588 Q60.0256 590.519 60.0256 586.986 Q60.0256 582.117 56.5881 579.188 Q53.1188 576.228 47.3897 576.228 L46.0847 576.228 L46.0847 582.053 M43.6657 570.372 L64.0042 570.372 L64.0042 576.228 L58.5933 576.228 Q61.8398 578.234 63.3994 581.226 Q64.9272 584.217 64.9272 588.546 Q64.9272 594.021 61.8716 597.267 Q58.7843 600.482 53.6281 600.482 Q47.6125 600.482 44.5569 596.471 Q41.5014 592.429 41.5014 584.44 L41.5014 576.228 L40.9285 576.228 Q36.8862 576.228 34.6901 578.902 Q32.4621 581.544 32.4621 586.35 Q32.4621 589.405 33.1941 592.302 Q33.9262 595.198 35.3903 597.872 L29.9795 597.872 Q28.7381 594.657 28.1334 591.633 Q27.4968 588.61 27.4968 585.745 Q27.4968 578.011 31.5072 574.191 Q35.5176 570.372 43.6657 570.372 Z" fill="#000000" fill-rule="evenodd" fill-opacity="1"></path><circle clip-path="url(#clip612)" cx="1102.42" cy="1084.87" r="14" fill="#009af9" fill-rule="evenodd" fill-opacity="1" stroke="#000000" stroke-opacity="1" stroke-width="3.2"></circle>
<circle clip-path="url(#clip612)" cx="1170.05" cy="1118.89" r="14" fill="#009af9" fill-rule="evenodd" fill-opacity="1" stroke="#000000" stroke-opacity="1" stroke-width="3.2"></circle>
<circle clip-path="url(#clip612)" cx="771.529" cy="1002.74" r="14" fill="#009af9" fill-rule="evenodd" fill-opacity="1" stroke="#000000" stroke-opacity="1" stroke-width="3.2"></circle>
<circle clip-path="url(#clip612)" cx="476.433" cy="646.972" r="14" fill="#009af9" fill-rule="evenodd" fill-opacity="1" stroke="#000000" stroke-opacity="1" stroke-width="3.2"></circle>
<circle clip-path="url(#clip612)" cx="1125.16" cy="1077.95" r="14" fill="#009af9" fill-rule="evenodd" fill-opacity="1" stroke="#000000" stroke-opacity="1" stroke-width="3.2"></circle>
<circle clip-path="url(#clip612)" cx="926.104" cy="1059.67" r="14" fill="#009af9" fill-rule="evenodd" fill-opacity="1" stroke="#000000" stroke-opacity="1" stroke-width="3.2"></circle>
<circle clip-path="url(#clip612)" cx="1189.81" cy="1152.67" r="14" fill="#009af9" fill-rule="evenodd" fill-opacity="1" stroke="#000000" stroke-opacity="1" stroke-width="3.2"></circle>
<circle clip-path="url(#clip612)" cx="2073.99" cy="1235.63" r="14" fill="#009af9" fill-rule="evenodd" fill-opacity="1" stroke="#000000" stroke-opacity="1" stroke-width="3.2"></circle>
<circle clip-path="url(#clip612)" cx="973.787" cy="1069.85" r="14" fill="#009af9" fill-rule="evenodd" fill-opacity="1" stroke="#000000" stroke-opacity="1" stroke-width="3.2"></circle>
<circle clip-path="url(#clip612)" cx="1100.19" cy="1107.12" r="14" fill="#009af9" fill-rule="evenodd" fill-opacity="1" stroke="#000000" stroke-opacity="1" stroke-width="3.2"></circle>
<circle clip-path="url(#clip612)" cx="846.741" cy="1064.01" r="14" fill="#009af9" fill-rule="evenodd" fill-opacity="1" stroke="#000000" stroke-opacity="1" stroke-width="3.2"></circle>
<circle clip-path="url(#clip612)" cx="1058.03" cy="1127.11" r="14" fill="#009af9" fill-rule="evenodd" fill-opacity="1" stroke="#000000" stroke-opacity="1" stroke-width="3.2"></circle>
<circle clip-path="url(#clip612)" cx="325.908" cy="417.382" r="14" fill="#009af9" fill-rule="evenodd" fill-opacity="1" stroke="#000000" stroke-opacity="1" stroke-width="3.2"></circle>
<circle clip-path="url(#clip612)" cx="678.829" cy="932.696" r="14" fill="#009af9" fill-rule="evenodd" fill-opacity="1" stroke="#000000" stroke-opacity="1" stroke-width="3.2"></circle>
<circle clip-path="url(#clip612)" cx="1790.09" cy="1230.76" r="14" fill="#009af9" fill-rule="evenodd" fill-opacity="1" stroke="#000000" stroke-opacity="1" stroke-width="3.2"></circle>
<circle clip-path="url(#clip612)" cx="627.176" cy="889.864" r="14" fill="#009af9" fill-rule="evenodd" fill-opacity="1" stroke="#000000" stroke-opacity="1" stroke-width="3.2"></circle>
<circle clip-path="url(#clip612)" cx="1138.86" cy="1089.08" r="14" fill="#009af9" fill-rule="evenodd" fill-opacity="1" stroke="#000000" stroke-opacity="1" stroke-width="3.2"></circle>
<circle clip-path="url(#clip612)" cx="856.783" cy="985.306" r="14" fill="#009af9" fill-rule="evenodd" fill-opacity="1" stroke="#000000" stroke-opacity="1" stroke-width="3.2"></circle>
<circle clip-path="url(#clip612)" cx="898.393" cy="1078.07" r="14" fill="#009af9" fill-rule="evenodd" fill-opacity="1" stroke="#000000" stroke-opacity="1" stroke-width="3.2"></circle>
<circle clip-path="url(#clip612)" cx="973.096" cy="1039.97" r="14" fill="#009af9" fill-rule="evenodd" fill-opacity="1" stroke="#000000" stroke-opacity="1" stroke-width="3.2"></circle>
<circle clip-path="url(#clip612)" cx="1591.94" cy="1177.11" r="14" fill="#009af9" fill-rule="evenodd" fill-opacity="1" stroke="#000000" stroke-opacity="1" stroke-width="3.2"></circle>
<circle clip-path="url(#clip612)" cx="1162.54" cy="1119.96" r="14" fill="#009af9" fill-rule="evenodd" fill-opacity="1" stroke="#000000" stroke-opacity="1" stroke-width="3.2"></circle>
<circle clip-path="url(#clip612)" cx="356.95" cy="532.702" r="14" fill="#009af9" fill-rule="evenodd" fill-opacity="1" stroke="#000000" stroke-opacity="1" stroke-width="3.2"></circle>
<circle clip-path="url(#clip612)" cx="970.602" cy="1066.72" r="14" fill="#009af9" fill-rule="evenodd" fill-opacity="1" stroke="#000000" stroke-opacity="1" stroke-width="3.2"></circle>
<circle clip-path="url(#clip612)" cx="543.297" cy="817.921" r="14" fill="#009af9" fill-rule="evenodd" fill-opacity="1" stroke="#000000" stroke-opacity="1" stroke-width="3.2"></circle>
<circle clip-path="url(#clip612)" cx="980.995" cy="1097.21" r="14" fill="#009af9" fill-rule="evenodd" fill-opacity="1" stroke="#000000" stroke-opacity="1" stroke-width="3.2"></circle>
<circle clip-path="url(#clip612)" cx="742.467" cy="925.566" r="14" fill="#009af9" fill-rule="evenodd" fill-opacity="1" stroke="#000000" stroke-opacity="1" stroke-width="3.2"></circle>
<circle clip-path="url(#clip612)" cx="1441.3" cy="1188.47" r="14" fill="#009af9" fill-rule="evenodd" fill-opacity="1" stroke="#000000" stroke-opacity="1" stroke-width="3.2"></circle>
<circle clip-path="url(#clip612)" cx="729.261" cy="951.473" r="14" fill="#009af9" fill-rule="evenodd" fill-opacity="1" stroke="#000000" stroke-opacity="1" stroke-width="3.2"></circle>
<circle clip-path="url(#clip612)" cx="907.683" cy="998.81" r="14" fill="#009af9" fill-rule="evenodd" fill-opacity="1" stroke="#000000" stroke-opacity="1" stroke-width="3.2"></circle>
<circle clip-path="url(#clip612)" cx="645.834" cy="878.949" r="14" fill="#009af9" fill-rule="evenodd" fill-opacity="1" stroke="#000000" stroke-opacity="1" stroke-width="3.2"></circle>
<circle clip-path="url(#clip612)" cx="366.44" cy="520.012" r="14" fill="#009af9" fill-rule="evenodd" fill-opacity="1" stroke="#000000" stroke-opacity="1" stroke-width="3.2"></circle>
<circle clip-path="url(#clip612)" cx="1131.53" cy="1119.25" r="14" fill="#009af9" fill-rule="evenodd" fill-opacity="1" stroke="#000000" stroke-opacity="1" stroke-width="3.2"></circle>
<circle clip-path="url(#clip612)" cx="713.379" cy="893.322" r="14" fill="#009af9" fill-rule="evenodd" fill-opacity="1" stroke="#000000" stroke-opacity="1" stroke-width="3.2"></circle>
<circle clip-path="url(#clip612)" cx="589.097" cy="819.429" r="14" fill="#009af9" fill-rule="evenodd" fill-opacity="1" stroke="#000000" stroke-opacity="1" stroke-width="3.2"></circle>
<circle clip-path="url(#clip612)" cx="1110.17" cy="1087.66" r="14" fill="#009af9" fill-rule="evenodd" fill-opacity="1" stroke="#000000" stroke-opacity="1" stroke-width="3.2"></circle>
<circle clip-path="url(#clip612)" cx="586.275" cy="732.02" r="14" fill="#009af9" fill-rule="evenodd" fill-opacity="1" stroke="#000000" stroke-opacity="1" stroke-width="3.2"></circle>
<circle clip-path="url(#clip612)" cx="333.176" cy="300.124" r="14" fill="#009af9" fill-rule="evenodd" fill-opacity="1" stroke="#000000" stroke-opacity="1" stroke-width="3.2"></circle>
<circle clip-path="url(#clip612)" cx="1214.01" cy="1118.32" r="14" fill="#009af9" fill-rule="evenodd" fill-opacity="1" stroke="#000000" stroke-opacity="1" stroke-width="3.2"></circle>
<circle clip-path="url(#clip612)" cx="684.359" cy="928.975" r="14" fill="#009af9" fill-rule="evenodd" fill-opacity="1" stroke="#000000" stroke-opacity="1" stroke-width="3.2"></circle>
<circle clip-path="url(#clip612)" cx="1759.67" cy="1248.04" r="14" fill="#009af9" fill-rule="evenodd" fill-opacity="1" stroke="#000000" stroke-opacity="1" stroke-width="3.2"></circle>
<circle clip-path="url(#clip612)" cx="628.717" cy="891.721" r="14" fill="#009af9" fill-rule="evenodd" fill-opacity="1" stroke="#000000" stroke-opacity="1" stroke-width="3.2"></circle>
<circle clip-path="url(#clip612)" cx="2292.79" cy="1265.65" r="14" fill="#009af9" fill-rule="evenodd" fill-opacity="1" stroke="#000000" stroke-opacity="1" stroke-width="3.2"></circle>
<circle clip-path="url(#clip612)" cx="350.794" cy="500.89" r="14" fill="#009af9" fill-rule="evenodd" fill-opacity="1" stroke="#000000" stroke-opacity="1" stroke-width="3.2"></circle>
<circle clip-path="url(#clip612)" cx="1924.3" cy="1234.69" r="14" fill="#009af9" fill-rule="evenodd" fill-opacity="1" stroke="#000000" stroke-opacity="1" stroke-width="3.2"></circle>
<circle clip-path="url(#clip612)" cx="1403.24" cy="1200.1" r="14" fill="#009af9" fill-rule="evenodd" fill-opacity="1" stroke="#000000" stroke-opacity="1" stroke-width="3.2"></circle>
<circle clip-path="url(#clip612)" cx="841.161" cy="1013.53" r="14" fill="#009af9" fill-rule="evenodd" fill-opacity="1" stroke="#000000" stroke-opacity="1" stroke-width="3.2"></circle>
<circle clip-path="url(#clip612)" cx="883.06" cy="1019.94" r="14" fill="#009af9" fill-rule="evenodd" fill-opacity="1" stroke="#000000" stroke-opacity="1" stroke-width="3.2"></circle>
<circle clip-path="url(#clip612)" cx="294.087" cy="234.351" r="14" fill="#009af9" fill-rule="evenodd" fill-opacity="1" stroke="#000000" stroke-opacity="1" stroke-width="3.2"></circle>
<circle clip-path="url(#clip612)" cx="611.352" cy="837.932" r="14" fill="#009af9" fill-rule="evenodd" fill-opacity="1" stroke="#000000" stroke-opacity="1" stroke-width="3.2"></circle>
<circle clip-path="url(#clip612)" cx="1102.42" cy="936.629" r="14" fill="#e26f46" fill-rule="evenodd" fill-opacity="1" stroke="#000000" stroke-opacity="1" stroke-width="3.2"></circle>
<circle clip-path="url(#clip612)" cx="1170.05" cy="919.392" r="14" fill="#e26f46" fill-rule="evenodd" fill-opacity="1" stroke="#000000" stroke-opacity="1" stroke-width="3.2"></circle>
<circle clip-path="url(#clip612)" cx="771.529" cy="841.984" r="14" fill="#e26f46" fill-rule="evenodd" fill-opacity="1" stroke="#000000" stroke-opacity="1" stroke-width="3.2"></circle>
<circle clip-path="url(#clip612)" cx="476.433" cy="811.953" r="14" fill="#e26f46" fill-rule="evenodd" fill-opacity="1" stroke="#000000" stroke-opacity="1" stroke-width="3.2"></circle>
<circle clip-path="url(#clip612)" cx="1125.16" cy="871.859" r="14" fill="#e26f46" fill-rule="evenodd" fill-opacity="1" stroke="#000000" stroke-opacity="1" stroke-width="3.2"></circle>
<circle clip-path="url(#clip612)" cx="926.104" cy="876.719" r="14" fill="#e26f46" fill-rule="evenodd" fill-opacity="1" stroke="#000000" stroke-opacity="1" stroke-width="3.2"></circle>
<circle clip-path="url(#clip612)" cx="1189.81" cy="890.726" r="14" fill="#e26f46" fill-rule="evenodd" fill-opacity="1" stroke="#000000" stroke-opacity="1" stroke-width="3.2"></circle>
<circle clip-path="url(#clip612)" cx="2073.99" cy="844.02" r="14" fill="#e26f46" fill-rule="evenodd" fill-opacity="1" stroke="#000000" stroke-opacity="1" stroke-width="3.2"></circle>
<circle clip-path="url(#clip612)" cx="973.787" cy="818.561" r="14" fill="#e26f46" fill-rule="evenodd" fill-opacity="1" stroke="#000000" stroke-opacity="1" stroke-width="3.2"></circle>
<circle clip-path="url(#clip612)" cx="1100.19" cy="977.944" r="14" fill="#e26f46" fill-rule="evenodd" fill-opacity="1" stroke="#000000" stroke-opacity="1" stroke-width="3.2"></circle>
<circle clip-path="url(#clip612)" cx="846.741" cy="936.019" r="14" fill="#e26f46" fill-rule="evenodd" fill-opacity="1" stroke="#000000" stroke-opacity="1" stroke-width="3.2"></circle>
<circle clip-path="url(#clip612)" cx="1058.03" cy="901.312" r="14" fill="#e26f46" fill-rule="evenodd" fill-opacity="1" stroke="#000000" stroke-opacity="1" stroke-width="3.2"></circle>
<circle clip-path="url(#clip612)" cx="325.908" cy="943.229" r="14" fill="#e26f46" fill-rule="evenodd" fill-opacity="1" stroke="#000000" stroke-opacity="1" stroke-width="3.2"></circle>
<circle clip-path="url(#clip612)" cx="678.829" cy="925.686" r="14" fill="#e26f46" fill-rule="evenodd" fill-opacity="1" stroke="#000000" stroke-opacity="1" stroke-width="3.2"></circle>
<circle clip-path="url(#clip612)" cx="1790.09" cy="911.177" r="14" fill="#e26f46" fill-rule="evenodd" fill-opacity="1" stroke="#000000" stroke-opacity="1" stroke-width="3.2"></circle>
<circle clip-path="url(#clip612)" cx="627.176" cy="731.271" r="14" fill="#e26f46" fill-rule="evenodd" fill-opacity="1" stroke="#000000" stroke-opacity="1" stroke-width="3.2"></circle>
<circle clip-path="url(#clip612)" cx="1138.86" cy="866.971" r="14" fill="#e26f46" fill-rule="evenodd" fill-opacity="1" stroke="#000000" stroke-opacity="1" stroke-width="3.2"></circle>
<circle clip-path="url(#clip612)" cx="856.783" cy="890.194" r="14" fill="#e26f46" fill-rule="evenodd" fill-opacity="1" stroke="#000000" stroke-opacity="1" stroke-width="3.2"></circle>
<circle clip-path="url(#clip612)" cx="898.393" cy="955.942" r="14" fill="#e26f46" fill-rule="evenodd" fill-opacity="1" stroke="#000000" stroke-opacity="1" stroke-width="3.2"></circle>
<circle clip-path="url(#clip612)" cx="973.096" cy="911.809" r="14" fill="#e26f46" fill-rule="evenodd" fill-opacity="1" stroke="#000000" stroke-opacity="1" stroke-width="3.2"></circle>
<circle clip-path="url(#clip612)" cx="1591.94" cy="875.577" r="14" fill="#e26f46" fill-rule="evenodd" fill-opacity="1" stroke="#000000" stroke-opacity="1" stroke-width="3.2"></circle>
<circle clip-path="url(#clip612)" cx="1162.54" cy="1022.71" r="14" fill="#e26f46" fill-rule="evenodd" fill-opacity="1" stroke="#000000" stroke-opacity="1" stroke-width="3.2"></circle>
<circle clip-path="url(#clip612)" cx="356.95" cy="919.559" r="14" fill="#e26f46" fill-rule="evenodd" fill-opacity="1" stroke="#000000" stroke-opacity="1" stroke-width="3.2"></circle>
<circle clip-path="url(#clip612)" cx="970.602" cy="719.553" r="14" fill="#e26f46" fill-rule="evenodd" fill-opacity="1" stroke="#000000" stroke-opacity="1" stroke-width="3.2"></circle>
<circle clip-path="url(#clip612)" cx="543.297" cy="849.542" r="14" fill="#e26f46" fill-rule="evenodd" fill-opacity="1" stroke="#000000" stroke-opacity="1" stroke-width="3.2"></circle>
<circle clip-path="url(#clip612)" cx="980.995" cy="931.626" r="14" fill="#e26f46" fill-rule="evenodd" fill-opacity="1" stroke="#000000" stroke-opacity="1" stroke-width="3.2"></circle>
<circle clip-path="url(#clip612)" cx="742.467" cy="876.195" r="14" fill="#e26f46" fill-rule="evenodd" fill-opacity="1" stroke="#000000" stroke-opacity="1" stroke-width="3.2"></circle>
<circle clip-path="url(#clip612)" cx="1441.3" cy="899.165" r="14" fill="#e26f46" fill-rule="evenodd" fill-opacity="1" stroke="#000000" stroke-opacity="1" stroke-width="3.2"></circle>
<circle clip-path="url(#clip612)" cx="729.261" cy="949.303" r="14" fill="#e26f46" fill-rule="evenodd" fill-opacity="1" stroke="#000000" stroke-opacity="1" stroke-width="3.2"></circle>
<circle clip-path="url(#clip612)" cx="907.683" cy="891.832" r="14" fill="#e26f46" fill-rule="evenodd" fill-opacity="1" stroke="#000000" stroke-opacity="1" stroke-width="3.2"></circle>
<circle clip-path="url(#clip612)" cx="645.834" cy="910.092" r="14" fill="#e26f46" fill-rule="evenodd" fill-opacity="1" stroke="#000000" stroke-opacity="1" stroke-width="3.2"></circle>
<circle clip-path="url(#clip612)" cx="366.44" cy="943.094" r="14" fill="#e26f46" fill-rule="evenodd" fill-opacity="1" stroke="#000000" stroke-opacity="1" stroke-width="3.2"></circle>
<circle clip-path="url(#clip612)" cx="1131.53" cy="948.936" r="14" fill="#e26f46" fill-rule="evenodd" fill-opacity="1" stroke="#000000" stroke-opacity="1" stroke-width="3.2"></circle>
<circle clip-path="url(#clip612)" cx="713.379" cy="907.191" r="14" fill="#e26f46" fill-rule="evenodd" fill-opacity="1" stroke="#000000" stroke-opacity="1" stroke-width="3.2"></circle>
<circle clip-path="url(#clip612)" cx="589.097" cy="911.088" r="14" fill="#e26f46" fill-rule="evenodd" fill-opacity="1" stroke="#000000" stroke-opacity="1" stroke-width="3.2"></circle>
<circle clip-path="url(#clip612)" cx="1110.17" cy="818.036" r="14" fill="#e26f46" fill-rule="evenodd" fill-opacity="1" stroke="#000000" stroke-opacity="1" stroke-width="3.2"></circle>
<circle clip-path="url(#clip612)" cx="586.275" cy="816.875" r="14" fill="#e26f46" fill-rule="evenodd" fill-opacity="1" stroke="#000000" stroke-opacity="1" stroke-width="3.2"></circle>
<circle clip-path="url(#clip612)" cx="333.176" cy="731.569" r="14" fill="#e26f46" fill-rule="evenodd" fill-opacity="1" stroke="#000000" stroke-opacity="1" stroke-width="3.2"></circle>
<circle clip-path="url(#clip612)" cx="1214.01" cy="780.629" r="14" fill="#e26f46" fill-rule="evenodd" fill-opacity="1" stroke="#000000" stroke-opacity="1" stroke-width="3.2"></circle>
<circle clip-path="url(#clip612)" cx="684.359" cy="907.238" r="14" fill="#e26f46" fill-rule="evenodd" fill-opacity="1" stroke="#000000" stroke-opacity="1" stroke-width="3.2"></circle>
<circle clip-path="url(#clip612)" cx="1759.67" cy="884.931" r="14" fill="#e26f46" fill-rule="evenodd" fill-opacity="1" stroke="#000000" stroke-opacity="1" stroke-width="3.2"></circle>
<circle clip-path="url(#clip612)" cx="628.717" cy="902.914" r="14" fill="#e26f46" fill-rule="evenodd" fill-opacity="1" stroke="#000000" stroke-opacity="1" stroke-width="3.2"></circle>
<circle clip-path="url(#clip612)" cx="2292.79" cy="952.873" r="14" fill="#e26f46" fill-rule="evenodd" fill-opacity="1" stroke="#000000" stroke-opacity="1" stroke-width="3.2"></circle>
<circle clip-path="url(#clip612)" cx="350.794" cy="889.372" r="14" fill="#e26f46" fill-rule="evenodd" fill-opacity="1" stroke="#000000" stroke-opacity="1" stroke-width="3.2"></circle>
<circle clip-path="url(#clip612)" cx="1924.3" cy="911.329" r="14" fill="#e26f46" fill-rule="evenodd" fill-opacity="1" stroke="#000000" stroke-opacity="1" stroke-width="3.2"></circle>
<circle clip-path="url(#clip612)" cx="1403.24" cy="918.309" r="14" fill="#e26f46" fill-rule="evenodd" fill-opacity="1" stroke="#000000" stroke-opacity="1" stroke-width="3.2"></circle>
<circle clip-path="url(#clip612)" cx="841.161" cy="938.266" r="14" fill="#e26f46" fill-rule="evenodd" fill-opacity="1" stroke="#000000" stroke-opacity="1" stroke-width="3.2"></circle>
<circle clip-path="url(#clip612)" cx="883.06" cy="792.314" r="14" fill="#e26f46" fill-rule="evenodd" fill-opacity="1" stroke="#000000" stroke-opacity="1" stroke-width="3.2"></circle>
<circle clip-path="url(#clip612)" cx="294.087" cy="911.029" r="14" fill="#e26f46" fill-rule="evenodd" fill-opacity="1" stroke="#000000" stroke-opacity="1" stroke-width="3.2"></circle>
<circle clip-path="url(#clip612)" cx="611.352" cy="682.03" r="14" fill="#e26f46" fill-rule="evenodd" fill-opacity="1" stroke="#000000" stroke-opacity="1" stroke-width="3.2"></circle>
<circle clip-path="url(#clip612)" cx="1102.42" cy="1136.88" r="14" fill="#3da44d" fill-rule="evenodd" fill-opacity="1" stroke="#000000" stroke-opacity="1" stroke-width="3.2"></circle>
<circle clip-path="url(#clip612)" cx="1170.05" cy="1170.83" r="14" fill="#3da44d" fill-rule="evenodd" fill-opacity="1" stroke="#000000" stroke-opacity="1" stroke-width="3.2"></circle>
<circle clip-path="url(#clip612)" cx="771.529" cy="1049.45" r="14" fill="#3da44d" fill-rule="evenodd" fill-opacity="1" stroke="#000000" stroke-opacity="1" stroke-width="3.2"></circle>
<circle clip-path="url(#clip612)" cx="476.433" cy="585.888" r="14" fill="#3da44d" fill-rule="evenodd" fill-opacity="1" stroke="#000000" stroke-opacity="1" stroke-width="3.2"></circle>
<circle clip-path="url(#clip612)" cx="1125.16" cy="1143.56" r="14" fill="#3da44d" fill-rule="evenodd" fill-opacity="1" stroke="#000000" stroke-opacity="1" stroke-width="3.2"></circle>
<circle clip-path="url(#clip612)" cx="926.104" cy="1115.49" r="14" fill="#3da44d" fill-rule="evenodd" fill-opacity="1" stroke="#000000" stroke-opacity="1" stroke-width="3.2"></circle>
<circle clip-path="url(#clip612)" cx="1189.81" cy="1228.25" r="14" fill="#3da44d" fill-rule="evenodd" fill-opacity="1" stroke="#000000" stroke-opacity="1" stroke-width="3.2"></circle>
<circle clip-path="url(#clip612)" cx="2073.99" cy="1316.45" r="14" fill="#3da44d" fill-rule="evenodd" fill-opacity="1" stroke="#000000" stroke-opacity="1" stroke-width="3.2"></circle>
<circle clip-path="url(#clip612)" cx="973.787" cy="1109.12" r="14" fill="#3da44d" fill-rule="evenodd" fill-opacity="1" stroke="#000000" stroke-opacity="1" stroke-width="3.2"></circle>
<circle clip-path="url(#clip612)" cx="1100.19" cy="1157.2" r="14" fill="#3da44d" fill-rule="evenodd" fill-opacity="1" stroke="#000000" stroke-opacity="1" stroke-width="3.2"></circle>
<circle clip-path="url(#clip612)" cx="846.741" cy="1105.62" r="14" fill="#3da44d" fill-rule="evenodd" fill-opacity="1" stroke="#000000" stroke-opacity="1" stroke-width="3.2"></circle>
<circle clip-path="url(#clip612)" cx="1058.03" cy="1224.27" r="14" fill="#3da44d" fill-rule="evenodd" fill-opacity="1" stroke="#000000" stroke-opacity="1" stroke-width="3.2"></circle>
<circle clip-path="url(#clip612)" cx="325.908" cy="277.289" r="14" fill="#3da44d" fill-rule="evenodd" fill-opacity="1" stroke="#000000" stroke-opacity="1" stroke-width="3.2"></circle>
<circle clip-path="url(#clip612)" cx="678.829" cy="936.979" r="14" fill="#3da44d" fill-rule="evenodd" fill-opacity="1" stroke="#000000" stroke-opacity="1" stroke-width="3.2"></circle>
<circle clip-path="url(#clip612)" cx="1790.09" cy="1344.12" r="14" fill="#3da44d" fill-rule="evenodd" fill-opacity="1" stroke="#000000" stroke-opacity="1" stroke-width="3.2"></circle>
<circle clip-path="url(#clip612)" cx="627.176" cy="926.608" r="14" fill="#3da44d" fill-rule="evenodd" fill-opacity="1" stroke="#000000" stroke-opacity="1" stroke-width="3.2"></circle>
<circle clip-path="url(#clip612)" cx="1138.86" cy="1155.27" r="14" fill="#3da44d" fill-rule="evenodd" fill-opacity="1" stroke="#000000" stroke-opacity="1" stroke-width="3.2"></circle>
<circle clip-path="url(#clip612)" cx="856.783" cy="1034.8" r="14" fill="#3da44d" fill-rule="evenodd" fill-opacity="1" stroke="#000000" stroke-opacity="1" stroke-width="3.2"></circle>
<circle clip-path="url(#clip612)" cx="898.393" cy="1143.57" r="14" fill="#3da44d" fill-rule="evenodd" fill-opacity="1" stroke="#000000" stroke-opacity="1" stroke-width="3.2"></circle>
<circle clip-path="url(#clip612)" cx="973.096" cy="1097.45" r="14" fill="#3da44d" fill-rule="evenodd" fill-opacity="1" stroke="#000000" stroke-opacity="1" stroke-width="3.2"></circle>
<circle clip-path="url(#clip612)" cx="1591.94" cy="1241.1" r="14" fill="#3da44d" fill-rule="evenodd" fill-opacity="1" stroke="#000000" stroke-opacity="1" stroke-width="3.2"></circle>
<circle clip-path="url(#clip612)" cx="1162.54" cy="1139.32" r="14" fill="#3da44d" fill-rule="evenodd" fill-opacity="1" stroke="#000000" stroke-opacity="1" stroke-width="3.2"></circle>
<circle clip-path="url(#clip612)" cx="356.95" cy="414.736" r="14" fill="#3da44d" fill-rule="evenodd" fill-opacity="1" stroke="#000000" stroke-opacity="1" stroke-width="3.2"></circle>
<circle clip-path="url(#clip612)" cx="970.602" cy="1116.93" r="14" fill="#3da44d" fill-rule="evenodd" fill-opacity="1" stroke="#000000" stroke-opacity="1" stroke-width="3.2"></circle>
<circle clip-path="url(#clip612)" cx="543.297" cy="809.776" r="14" fill="#3da44d" fill-rule="evenodd" fill-opacity="1" stroke="#000000" stroke-opacity="1" stroke-width="3.2"></circle>
<circle clip-path="url(#clip612)" cx="980.995" cy="1135.87" r="14" fill="#3da44d" fill-rule="evenodd" fill-opacity="1" stroke="#000000" stroke-opacity="1" stroke-width="3.2"></circle>
<circle clip-path="url(#clip612)" cx="742.467" cy="939.133" r="14" fill="#3da44d" fill-rule="evenodd" fill-opacity="1" stroke="#000000" stroke-opacity="1" stroke-width="3.2"></circle>
<circle clip-path="url(#clip612)" cx="1441.3" cy="1274.56" r="14" fill="#3da44d" fill-rule="evenodd" fill-opacity="1" stroke="#000000" stroke-opacity="1" stroke-width="3.2"></circle>
<circle clip-path="url(#clip612)" cx="729.261" cy="981.432" r="14" fill="#3da44d" fill-rule="evenodd" fill-opacity="1" stroke="#000000" stroke-opacity="1" stroke-width="3.2"></circle>
<circle clip-path="url(#clip612)" cx="907.683" cy="1032.42" r="14" fill="#3da44d" fill-rule="evenodd" fill-opacity="1" stroke="#000000" stroke-opacity="1" stroke-width="3.2"></circle>
<circle clip-path="url(#clip612)" cx="645.834" cy="841.424" r="14" fill="#3da44d" fill-rule="evenodd" fill-opacity="1" stroke="#000000" stroke-opacity="1" stroke-width="3.2"></circle>
<circle clip-path="url(#clip612)" cx="366.44" cy="379.874" r="14" fill="#3da44d" fill-rule="evenodd" fill-opacity="1" stroke="#000000" stroke-opacity="1" stroke-width="3.2"></circle>
<circle clip-path="url(#clip612)" cx="1131.53" cy="1168.56" r="14" fill="#3da44d" fill-rule="evenodd" fill-opacity="1" stroke="#000000" stroke-opacity="1" stroke-width="3.2"></circle>
<circle clip-path="url(#clip612)" cx="713.379" cy="919.583" r="14" fill="#3da44d" fill-rule="evenodd" fill-opacity="1" stroke="#000000" stroke-opacity="1" stroke-width="3.2"></circle>
<circle clip-path="url(#clip612)" cx="589.097" cy="814.067" r="14" fill="#3da44d" fill-rule="evenodd" fill-opacity="1" stroke="#000000" stroke-opacity="1" stroke-width="3.2"></circle>
<circle clip-path="url(#clip612)" cx="1110.17" cy="1124.3" r="14" fill="#3da44d" fill-rule="evenodd" fill-opacity="1" stroke="#000000" stroke-opacity="1" stroke-width="3.2"></circle>
<circle clip-path="url(#clip612)" cx="586.275" cy="705.102" r="14" fill="#3da44d" fill-rule="evenodd" fill-opacity="1" stroke="#000000" stroke-opacity="1" stroke-width="3.2"></circle>
<circle clip-path="url(#clip612)" cx="333.176" cy="219.471" r="14" fill="#3da44d" fill-rule="evenodd" fill-opacity="1" stroke="#000000" stroke-opacity="1" stroke-width="3.2"></circle>
<circle clip-path="url(#clip612)" cx="1214.01" cy="1184.35" r="14" fill="#3da44d" fill-rule="evenodd" fill-opacity="1" stroke="#000000" stroke-opacity="1" stroke-width="3.2"></circle>
<circle clip-path="url(#clip612)" cx="684.359" cy="938.277" r="14" fill="#3da44d" fill-rule="evenodd" fill-opacity="1" stroke="#000000" stroke-opacity="1" stroke-width="3.2"></circle>
<circle clip-path="url(#clip612)" cx="1759.67" cy="1337.15" r="14" fill="#3da44d" fill-rule="evenodd" fill-opacity="1" stroke="#000000" stroke-opacity="1" stroke-width="3.2"></circle>
<circle clip-path="url(#clip612)" cx="628.717" cy="897.924" r="14" fill="#3da44d" fill-rule="evenodd" fill-opacity="1" stroke="#000000" stroke-opacity="1" stroke-width="3.2"></circle>
<circle clip-path="url(#clip612)" cx="2292.79" cy="1384.24" r="14" fill="#3da44d" fill-rule="evenodd" fill-opacity="1" stroke="#000000" stroke-opacity="1" stroke-width="3.2"></circle>
<circle clip-path="url(#clip612)" cx="350.794" cy="393.017" r="14" fill="#3da44d" fill-rule="evenodd" fill-opacity="1" stroke="#000000" stroke-opacity="1" stroke-width="3.2"></circle>
<circle clip-path="url(#clip612)" cx="1924.3" cy="1320.46" r="14" fill="#3da44d" fill-rule="evenodd" fill-opacity="1" stroke="#000000" stroke-opacity="1" stroke-width="3.2"></circle>
<circle clip-path="url(#clip612)" cx="1403.24" cy="1304.48" r="14" fill="#3da44d" fill-rule="evenodd" fill-opacity="1" stroke="#000000" stroke-opacity="1" stroke-width="3.2"></circle>
<circle clip-path="url(#clip612)" cx="841.161" cy="1054.56" r="14" fill="#3da44d" fill-rule="evenodd" fill-opacity="1" stroke="#000000" stroke-opacity="1" stroke-width="3.2"></circle>
<circle clip-path="url(#clip612)" cx="883.06" cy="1069.86" r="14" fill="#3da44d" fill-rule="evenodd" fill-opacity="1" stroke="#000000" stroke-opacity="1" stroke-width="3.2"></circle>
<circle clip-path="url(#clip612)" cx="294.087" cy="86.1857" r="14" fill="#3da44d" fill-rule="evenodd" fill-opacity="1" stroke="#000000" stroke-opacity="1" stroke-width="3.2"></circle>
<circle clip-path="url(#clip612)" cx="611.352" cy="850.989" r="14" fill="#3da44d" fill-rule="evenodd" fill-opacity="1" stroke="#000000" stroke-opacity="1" stroke-width="3.2"></circle>
<path clip-path="url(#clip610)" d="
M304.746 300.469 L872.208 300.469 L872.208 93.1086 L304.746 93.1086  Z
  " fill="#ffffff" fill-rule="evenodd" fill-opacity="1"></path>
<polyline clip-path="url(#clip610)" style="stroke:#000000; stroke-linecap:butt; stroke-linejoin:round; stroke-width:4; stroke-opacity:1; fill:none" points="
  304.746,300.469 872.208,300.469 872.208,93.1086 304.746,93.1086 304.746,300.469 
  "></polyline>
<circle clip-path="url(#clip610)" cx="398.908" cy="144.949" r="23" fill="#009af9" fill-rule="evenodd" fill-opacity="1" stroke="#000000" stroke-opacity="1" stroke-width="5.12"></circle>
<path clip-path="url(#clip610)" d="M520.939 130.331 L520.939 135.261 Q518.578 133.062 515.893 131.974 Q513.231 130.886 510.222 130.886 Q504.296 130.886 501.148 134.52 Q498 138.132 498 144.983 Q498 151.812 501.148 155.446 Q504.296 159.057 510.222 159.057 Q513.231 159.057 515.893 157.969 Q518.578 156.881 520.939 154.682 L520.939 159.567 Q518.486 161.233 515.731 162.067 Q513 162.9 509.944 162.9 Q502.097 162.9 497.583 158.108 Q493.069 153.293 493.069 144.983 Q493.069 136.65 497.583 131.858 Q502.097 127.044 509.944 127.044 Q513.046 127.044 515.777 127.877 Q518.532 128.687 520.939 130.331 Z" fill="#000000" fill-rule="evenodd" fill-opacity="1"></path><path clip-path="url(#clip610)" d="M538.023 139.289 Q534.597 139.289 532.606 141.974 Q530.615 144.636 530.615 149.289 Q530.615 153.942 532.583 156.627 Q534.574 159.289 538.023 159.289 Q541.425 159.289 543.416 156.604 Q545.407 153.918 545.407 149.289 Q545.407 144.682 543.416 141.997 Q541.425 139.289 538.023 139.289 M538.023 135.678 Q543.578 135.678 546.749 139.289 Q549.921 142.9 549.921 149.289 Q549.921 155.655 546.749 159.289 Q543.578 162.9 538.023 162.9 Q532.444 162.9 529.273 159.289 Q526.125 155.655 526.125 149.289 Q526.125 142.9 529.273 139.289 Q532.444 135.678 538.023 135.678 Z" fill="#000000" fill-rule="evenodd" fill-opacity="1"></path><path clip-path="url(#clip610)" d="M567.027 139.289 Q563.601 139.289 561.61 141.974 Q559.62 144.636 559.62 149.289 Q559.62 153.942 561.587 156.627 Q563.578 159.289 567.027 159.289 Q570.43 159.289 572.421 156.604 Q574.411 153.918 574.411 149.289 Q574.411 144.682 572.421 141.997 Q570.43 139.289 567.027 139.289 M567.027 135.678 Q572.583 135.678 575.754 139.289 Q578.925 142.9 578.925 149.289 Q578.925 155.655 575.754 159.289 Q572.583 162.9 567.027 162.9 Q561.448 162.9 558.277 159.289 Q555.129 155.655 555.129 149.289 Q555.129 142.9 558.277 139.289 Q561.448 135.678 567.027 135.678 Z" fill="#000000" fill-rule="evenodd" fill-opacity="1"></path><path clip-path="url(#clip610)" d="M590.106 158.34 L590.106 172.09 L585.823 172.09 L585.823 136.303 L590.106 136.303 L590.106 140.238 Q591.448 137.923 593.485 136.812 Q595.545 135.678 598.393 135.678 Q603.115 135.678 606.055 139.428 Q609.018 143.178 609.018 149.289 Q609.018 155.4 606.055 159.15 Q603.115 162.9 598.393 162.9 Q595.545 162.9 593.485 161.789 Q591.448 160.655 590.106 158.34 M604.596 149.289 Q604.596 144.59 602.652 141.928 Q600.731 139.243 597.351 139.243 Q593.971 139.243 592.027 141.928 Q590.106 144.59 590.106 149.289 Q590.106 153.988 592.027 156.673 Q593.971 159.335 597.351 159.335 Q600.731 159.335 602.652 156.673 Q604.596 153.988 604.596 149.289 Z" fill="#000000" fill-rule="evenodd" fill-opacity="1"></path><path clip-path="url(#clip610)" d="M638.254 148.201 L638.254 150.284 L618.67 150.284 Q618.948 154.682 621.309 156.997 Q623.693 159.289 627.93 159.289 Q630.383 159.289 632.675 158.687 Q634.99 158.085 637.258 156.881 L637.258 160.909 Q634.967 161.881 632.559 162.391 Q630.152 162.9 627.675 162.9 Q621.471 162.9 617.837 159.289 Q614.226 155.678 614.226 149.52 Q614.226 143.155 617.652 139.428 Q621.101 135.678 626.934 135.678 Q632.166 135.678 635.198 139.057 Q638.254 142.414 638.254 148.201 M633.994 146.951 Q633.948 143.456 632.027 141.372 Q630.129 139.289 626.98 139.289 Q623.416 139.289 621.263 141.303 Q619.133 143.317 618.809 146.974 L633.994 146.951 Z" fill="#000000" fill-rule="evenodd" fill-opacity="1"></path><path clip-path="url(#clip610)" d="M660.267 140.284 Q659.55 139.868 658.693 139.682 Q657.86 139.474 656.841 139.474 Q653.23 139.474 651.286 141.835 Q649.365 144.173 649.365 148.571 L649.365 162.229 L645.082 162.229 L645.082 136.303 L649.365 136.303 L649.365 140.331 Q650.707 137.969 652.86 136.835 Q655.013 135.678 658.091 135.678 Q658.531 135.678 659.064 135.747 Q659.596 135.794 660.244 135.909 L660.267 140.284 Z" fill="#000000" fill-rule="evenodd" fill-opacity="1"></path><path clip-path="url(#clip610)" d="M676.517 149.196 Q671.355 149.196 669.365 150.377 Q667.374 151.557 667.374 154.405 Q667.374 156.673 668.855 158.016 Q670.36 159.335 672.929 159.335 Q676.471 159.335 678.601 156.835 Q680.753 154.312 680.753 150.145 L680.753 149.196 L676.517 149.196 M685.013 147.437 L685.013 162.229 L680.753 162.229 L680.753 158.293 Q679.295 160.655 677.119 161.789 Q674.943 162.9 671.795 162.9 Q667.814 162.9 665.453 160.678 Q663.115 158.432 663.115 154.682 Q663.115 150.307 666.031 148.085 Q668.971 145.863 674.781 145.863 L680.753 145.863 L680.753 145.446 Q680.753 142.507 678.809 140.909 Q676.888 139.289 673.392 139.289 Q671.17 139.289 669.064 139.821 Q666.957 140.354 665.013 141.419 L665.013 137.483 Q667.351 136.581 669.55 136.141 Q671.749 135.678 673.832 135.678 Q679.457 135.678 682.235 138.594 Q685.013 141.511 685.013 147.437 Z" fill="#000000" fill-rule="evenodd" fill-opacity="1"></path><path clip-path="url(#clip610)" d="M697.999 128.942 L697.999 136.303 L706.772 136.303 L706.772 139.613 L697.999 139.613 L697.999 153.687 Q697.999 156.858 698.855 157.761 Q699.735 158.664 702.397 158.664 L706.772 158.664 L706.772 162.229 L702.397 162.229 Q697.466 162.229 695.591 160.4 Q693.716 158.548 693.716 153.687 L693.716 139.613 L690.591 139.613 L690.591 136.303 L693.716 136.303 L693.716 128.942 L697.999 128.942 Z" fill="#000000" fill-rule="evenodd" fill-opacity="1"></path><path clip-path="url(#clip610)" d="M712.374 136.303 L716.633 136.303 L716.633 162.229 L712.374 162.229 L712.374 136.303 M712.374 126.21 L716.633 126.21 L716.633 131.604 L712.374 131.604 L712.374 126.21 Z" fill="#000000" fill-rule="evenodd" fill-opacity="1"></path><path clip-path="url(#clip610)" d="M722.489 136.303 L727.003 136.303 L735.105 158.062 L743.207 136.303 L747.721 136.303 L737.998 162.229 L732.211 162.229 L722.489 136.303 Z" fill="#000000" fill-rule="evenodd" fill-opacity="1"></path><path clip-path="url(#clip610)" d="M775.776 148.201 L775.776 150.284 L756.193 150.284 Q756.471 154.682 758.832 156.997 Q761.216 159.289 765.452 159.289 Q767.906 159.289 770.197 158.687 Q772.512 158.085 774.781 156.881 L774.781 160.909 Q772.489 161.881 770.082 162.391 Q767.674 162.9 765.197 162.9 Q758.994 162.9 755.359 159.289 Q751.748 155.678 751.748 149.52 Q751.748 143.155 755.174 139.428 Q758.623 135.678 764.457 135.678 Q769.688 135.678 772.72 139.057 Q775.776 142.414 775.776 148.201 M771.517 146.951 Q771.47 143.456 769.549 141.372 Q767.651 139.289 764.503 139.289 Q760.938 139.289 758.785 141.303 Q756.656 143.317 756.332 146.974 L771.517 146.951 Z" fill="#000000" fill-rule="evenodd" fill-opacity="1"></path><circle clip-path="url(#clip610)" cx="398.908" cy="196.789" r="23" fill="#e26f46" fill-rule="evenodd" fill-opacity="1" stroke="#000000" stroke-opacity="1" stroke-width="5.12"></circle>
<path clip-path="url(#clip610)" d="M515.314 180.643 L515.314 185.203 Q512.652 183.93 510.291 183.305 Q507.93 182.68 505.731 182.68 Q501.912 182.68 499.828 184.161 Q497.768 185.643 497.768 188.374 Q497.768 190.666 499.134 191.847 Q500.523 193.004 504.365 193.722 L507.189 194.3 Q512.421 195.296 514.898 197.819 Q517.398 200.319 517.398 204.532 Q517.398 209.555 514.018 212.147 Q510.662 214.74 504.157 214.74 Q501.703 214.74 498.926 214.184 Q496.171 213.629 493.208 212.541 L493.208 207.726 Q496.055 209.323 498.787 210.133 Q501.518 210.944 504.157 210.944 Q508.162 210.944 510.338 209.37 Q512.514 207.796 512.514 204.879 Q512.514 202.333 510.939 200.897 Q509.389 199.462 505.824 198.745 L502.977 198.189 Q497.745 197.147 495.407 194.925 Q493.069 192.703 493.069 188.745 Q493.069 184.161 496.287 181.522 Q499.527 178.884 505.199 178.884 Q507.629 178.884 510.152 179.323 Q512.676 179.763 515.314 180.643 Z" fill="#000000" fill-rule="evenodd" fill-opacity="1"></path><path clip-path="url(#clip610)" d="M534.55 191.129 Q531.125 191.129 529.134 193.814 Q527.143 196.476 527.143 201.129 Q527.143 205.782 529.111 208.467 Q531.101 211.129 534.55 211.129 Q537.953 211.129 539.944 208.444 Q541.935 205.758 541.935 201.129 Q541.935 196.522 539.944 193.837 Q537.953 191.129 534.55 191.129 M534.55 187.518 Q540.106 187.518 543.277 191.129 Q546.449 194.74 546.449 201.129 Q546.449 207.495 543.277 211.129 Q540.106 214.74 534.55 214.74 Q528.972 214.74 525.8 211.129 Q522.652 207.495 522.652 201.129 Q522.652 194.74 525.8 191.129 Q528.972 187.518 534.55 187.518 Z" fill="#000000" fill-rule="evenodd" fill-opacity="1"></path><path clip-path="url(#clip610)" d="M572.166 189.138 L572.166 193.12 Q570.36 192.124 568.532 191.638 Q566.726 191.129 564.874 191.129 Q560.731 191.129 558.439 193.768 Q556.148 196.384 556.148 201.129 Q556.148 205.874 558.439 208.513 Q560.731 211.129 564.874 211.129 Q566.726 211.129 568.532 210.643 Q570.36 210.133 572.166 209.138 L572.166 213.073 Q570.384 213.907 568.462 214.323 Q566.564 214.74 564.411 214.74 Q558.555 214.74 555.106 211.059 Q551.657 207.379 551.657 201.129 Q551.657 194.786 555.129 191.152 Q558.624 187.518 564.689 187.518 Q566.657 187.518 568.532 187.935 Q570.407 188.328 572.166 189.138 Z" fill="#000000" fill-rule="evenodd" fill-opacity="1"></path><path clip-path="url(#clip610)" d="M579.573 188.143 L583.833 188.143 L583.833 214.069 L579.573 214.069 L579.573 188.143 M579.573 178.05 L583.833 178.05 L583.833 183.444 L579.573 183.444 L579.573 178.05 Z" fill="#000000" fill-rule="evenodd" fill-opacity="1"></path><path clip-path="url(#clip610)" d="M604.527 201.036 Q599.365 201.036 597.374 202.217 Q595.383 203.397 595.383 206.245 Q595.383 208.513 596.865 209.856 Q598.37 211.175 600.939 211.175 Q604.481 211.175 606.61 208.675 Q608.763 206.152 608.763 201.985 L608.763 201.036 L604.527 201.036 M613.022 199.277 L613.022 214.069 L608.763 214.069 L608.763 210.133 Q607.305 212.495 605.129 213.629 Q602.953 214.74 599.805 214.74 Q595.823 214.74 593.462 212.518 Q591.124 210.272 591.124 206.522 Q591.124 202.147 594.041 199.925 Q596.981 197.703 602.791 197.703 L608.763 197.703 L608.763 197.286 Q608.763 194.347 606.819 192.749 Q604.897 191.129 601.402 191.129 Q599.18 191.129 597.073 191.661 Q594.967 192.194 593.022 193.259 L593.022 189.323 Q595.36 188.421 597.559 187.981 Q599.758 187.518 601.842 187.518 Q607.467 187.518 610.244 190.434 Q613.022 193.351 613.022 199.277 Z" fill="#000000" fill-rule="evenodd" fill-opacity="1"></path><path clip-path="url(#clip610)" d="M621.795 178.05 L626.055 178.05 L626.055 214.069 L621.795 214.069 L621.795 178.05 Z" fill="#000000" fill-rule="evenodd" fill-opacity="1"></path><path clip-path="url(#clip610)" d="M654.897 183.351 L654.897 196.337 L660.777 196.337 Q664.04 196.337 665.823 194.647 Q667.605 192.958 667.605 189.833 Q667.605 186.731 665.823 185.041 Q664.04 183.351 660.777 183.351 L654.897 183.351 M650.221 179.509 L660.777 179.509 Q666.587 179.509 669.55 182.147 Q672.536 184.763 672.536 189.833 Q672.536 194.948 669.55 197.564 Q666.587 200.18 660.777 200.18 L654.897 200.18 L654.897 214.069 L650.221 214.069 L650.221 179.509 Z" fill="#000000" fill-rule="evenodd" fill-opacity="1"></path><path clip-path="url(#clip610)" d="M678.624 178.05 L682.883 178.05 L682.883 214.069 L678.624 214.069 L678.624 178.05 Z" fill="#000000" fill-rule="evenodd" fill-opacity="1"></path><path clip-path="url(#clip610)" d="M703.577 201.036 Q698.415 201.036 696.425 202.217 Q694.434 203.397 694.434 206.245 Q694.434 208.513 695.915 209.856 Q697.42 211.175 699.989 211.175 Q703.531 211.175 705.661 208.675 Q707.813 206.152 707.813 201.985 L707.813 201.036 L703.577 201.036 M712.073 199.277 L712.073 214.069 L707.813 214.069 L707.813 210.133 Q706.355 212.495 704.179 213.629 Q702.003 214.74 698.855 214.74 Q694.874 214.74 692.513 212.518 Q690.175 210.272 690.175 206.522 Q690.175 202.147 693.091 199.925 Q696.031 197.703 701.841 197.703 L707.813 197.703 L707.813 197.286 Q707.813 194.347 705.869 192.749 Q703.948 191.129 700.452 191.129 Q698.23 191.129 696.124 191.661 Q694.017 192.194 692.073 193.259 L692.073 189.323 Q694.411 188.421 696.61 187.981 Q698.809 187.518 700.892 187.518 Q706.517 187.518 709.295 190.434 Q712.073 193.351 712.073 199.277 Z" fill="#000000" fill-rule="evenodd" fill-opacity="1"></path><path clip-path="url(#clip610)" d="M742.397 198.421 L742.397 214.069 L738.137 214.069 L738.137 198.559 Q738.137 194.879 736.702 193.05 Q735.267 191.222 732.397 191.222 Q728.948 191.222 726.957 193.421 Q724.966 195.62 724.966 199.416 L724.966 214.069 L720.684 214.069 L720.684 188.143 L724.966 188.143 L724.966 192.171 Q726.494 189.833 728.554 188.675 Q730.637 187.518 733.346 187.518 Q737.813 187.518 740.105 190.296 Q742.397 193.05 742.397 198.421 Z" fill="#000000" fill-rule="evenodd" fill-opacity="1"></path><path clip-path="url(#clip610)" d="M772.443 198.421 L772.443 214.069 L768.183 214.069 L768.183 198.559 Q768.183 194.879 766.748 193.05 Q765.313 191.222 762.443 191.222 Q758.994 191.222 757.003 193.421 Q755.012 195.62 755.012 199.416 L755.012 214.069 L750.73 214.069 L750.73 188.143 L755.012 188.143 L755.012 192.171 Q756.54 189.833 758.6 188.675 Q760.683 187.518 763.392 187.518 Q767.859 187.518 770.151 190.296 Q772.443 193.05 772.443 198.421 Z" fill="#000000" fill-rule="evenodd" fill-opacity="1"></path><path clip-path="url(#clip610)" d="M803.114 200.041 L803.114 202.124 L783.531 202.124 Q783.808 206.522 786.169 208.837 Q788.554 211.129 792.79 211.129 Q795.243 211.129 797.535 210.527 Q799.85 209.925 802.118 208.721 L802.118 212.749 Q799.827 213.721 797.419 214.231 Q795.012 214.74 792.535 214.74 Q786.331 214.74 782.697 211.129 Q779.086 207.518 779.086 201.36 Q779.086 194.995 782.512 191.268 Q785.961 187.518 791.794 187.518 Q797.026 187.518 800.058 190.897 Q803.114 194.254 803.114 200.041 M798.855 198.791 Q798.808 195.296 796.887 193.212 Q794.989 191.129 791.841 191.129 Q788.276 191.129 786.123 193.143 Q783.994 195.157 783.669 198.814 L798.855 198.791 Z" fill="#000000" fill-rule="evenodd" fill-opacity="1"></path><path clip-path="url(#clip610)" d="M825.128 192.124 Q824.41 191.708 823.554 191.522 Q822.72 191.314 821.702 191.314 Q818.091 191.314 816.146 193.675 Q814.225 196.013 814.225 200.411 L814.225 214.069 L809.942 214.069 L809.942 188.143 L814.225 188.143 L814.225 192.171 Q815.567 189.809 817.72 188.675 Q819.873 187.518 822.952 187.518 Q823.391 187.518 823.924 187.587 Q824.456 187.634 825.104 187.749 L825.128 192.124 Z" fill="#000000" fill-rule="evenodd" fill-opacity="1"></path><circle clip-path="url(#clip610)" cx="398.908" cy="248.629" r="23" fill="#3da44d" fill-rule="evenodd" fill-opacity="1" stroke="#000000" stroke-opacity="1" stroke-width="5.12"></circle>
<path clip-path="url(#clip610)" d="M493.069 231.349 L499.365 231.349 L514.689 260.261 L514.689 231.349 L519.226 231.349 L519.226 265.909 L512.93 265.909 L497.606 236.997 L497.606 265.909 L493.069 265.909 L493.069 231.349 Z" fill="#000000" fill-rule="evenodd" fill-opacity="1"></path><path clip-path="url(#clip610)" d="M540.129 252.876 Q534.967 252.876 532.976 254.057 Q530.986 255.237 530.986 258.085 Q530.986 260.353 532.467 261.696 Q533.972 263.015 536.541 263.015 Q540.083 263.015 542.212 260.515 Q544.365 257.992 544.365 253.825 L544.365 252.876 L540.129 252.876 M548.624 251.117 L548.624 265.909 L544.365 265.909 L544.365 261.973 Q542.907 264.335 540.731 265.469 Q538.555 266.58 535.407 266.58 Q531.425 266.58 529.064 264.358 Q526.726 262.112 526.726 258.362 Q526.726 253.987 529.643 251.765 Q532.583 249.543 538.393 249.543 L544.365 249.543 L544.365 249.126 Q544.365 246.187 542.421 244.589 Q540.499 242.969 537.004 242.969 Q534.782 242.969 532.675 243.501 Q530.569 244.034 528.625 245.099 L528.625 241.163 Q530.962 240.261 533.162 239.821 Q535.361 239.358 537.444 239.358 Q543.069 239.358 545.847 242.274 Q548.624 245.191 548.624 251.117 Z" fill="#000000" fill-rule="evenodd" fill-opacity="1"></path><path clip-path="url(#clip610)" d="M573.925 240.747 L573.925 244.774 Q572.12 243.849 570.175 243.386 Q568.231 242.923 566.147 242.923 Q562.976 242.923 561.379 243.895 Q559.805 244.867 559.805 246.811 Q559.805 248.293 560.939 249.149 Q562.073 249.983 565.499 250.747 L566.958 251.071 Q571.495 252.043 573.393 253.825 Q575.314 255.585 575.314 258.756 Q575.314 262.367 572.444 264.473 Q569.597 266.58 564.597 266.58 Q562.513 266.58 560.245 266.163 Q557.999 265.77 555.499 264.96 L555.499 260.561 Q557.86 261.788 560.152 262.413 Q562.444 263.015 564.689 263.015 Q567.698 263.015 569.319 261.997 Q570.939 260.955 570.939 259.08 Q570.939 257.344 569.759 256.418 Q568.601 255.492 564.643 254.636 L563.161 254.288 Q559.203 253.455 557.444 251.742 Q555.685 250.006 555.685 246.997 Q555.685 243.339 558.277 241.349 Q560.87 239.358 565.638 239.358 Q567.999 239.358 570.083 239.705 Q572.166 240.052 573.925 240.747 Z" fill="#000000" fill-rule="evenodd" fill-opacity="1"></path><path clip-path="url(#clip610)" d="M603.647 250.261 L603.647 265.909 L599.388 265.909 L599.388 250.399 Q599.388 246.719 597.953 244.89 Q596.518 243.062 593.647 243.062 Q590.198 243.062 588.208 245.261 Q586.217 247.46 586.217 251.256 L586.217 265.909 L581.934 265.909 L581.934 229.89 L586.217 229.89 L586.217 244.011 Q587.745 241.673 589.805 240.515 Q591.888 239.358 594.596 239.358 Q599.064 239.358 601.356 242.136 Q603.647 244.89 603.647 250.261 Z" fill="#000000" fill-rule="evenodd" fill-opacity="1"></path></svg>